<svg width="258" height="68" viewBox="0 0 258 68" fill="none" xmlns="http://www.w3.org/2000/svg">
<path fill-rule="evenodd" clip-rule="evenodd" d="M38.1963 5.08594H62.4289C72.3163 5.08594 80.9774 7.59456 87.1169 12.7001C93.3317 17.8683 96.7101 25.4932 96.3053 35.0892C95.9636 43.1881 93.2667 49.5795 88.1731 54.2329C83.1459 58.8256 76.0338 61.4953 67.2756 62.732L67.1608 62.7482L54.2518 63.2276L55.8518 58.485L66.7371 58.0152C74.9389 56.8426 80.9722 54.4077 85.0145 50.7148C89.009 47.0655 91.3057 41.9617 91.6042 34.8874C91.9522 26.6369 89.096 20.4973 84.1238 16.3625C79.0764 12.1651 71.5981 9.83235 62.4289 9.83235H42.9016V48.041H62.8264C70.2482 47.5719 74.8204 45.9674 77.4875 43.5921C80.0406 41.3184 81.2337 37.9787 81.0172 32.9555C80.8069 28.0754 78.9698 24.7888 76.2055 22.6636C73.3644 20.4794 69.282 19.3252 64.311 19.3252H53.0182V37.3616H65.9579C68.6293 37.3616 70.1097 35.4582 70.2897 33.3598C70.3799 32.3086 70.1103 31.3967 69.6384 30.7954C69.214 30.2547 68.4775 29.7673 67.1342 29.7673H62.9717V25.0209H67.1342C69.7904 25.0209 71.936 26.0761 73.3276 27.8493C74.6717 29.5618 75.152 31.7351 74.9775 33.769C74.6282 37.841 71.5208 42.108 65.9579 42.108H48.3128V14.5788H64.311C69.927 14.5788 75.1358 15.8734 79.0578 18.8886C83.0565 21.9629 85.4542 26.6266 85.7181 32.7494C85.9722 38.643 84.5774 43.6095 80.6017 47.1502C76.7488 50.5816 70.8723 52.297 63.0439 52.7829L62.9717 52.7874H38.1963V5.08594Z" fill="#132B6B"/>
<path d="M112.389 57.4061H112.537C112.935 57.4061 113.125 57.2371 113.125 56.8991V56.7916C113.125 56.4536 112.943 56.2846 112.537 56.2846H112.389C112.009 56.2846 111.81 56.4536 111.81 56.7916V56.8991C111.81 57.2371 112.009 57.4061 112.389 57.4061ZM110.322 57.4061H110.477C110.867 57.4061 111.066 57.2371 111.066 56.8991V56.7916C111.066 56.4536 110.875 56.2846 110.477 56.2846H110.322C109.941 56.2846 109.751 56.4536 109.751 56.7916V56.8991C109.751 57.2371 109.941 57.4061 110.322 57.4061ZM108.254 57.4061H108.409C108.807 57.4061 108.998 57.2371 108.998 56.8991V56.7916C108.998 56.4536 108.807 56.2846 108.409 56.2846H108.254C107.873 56.2846 107.683 56.4536 107.683 56.7916V56.8991C107.683 57.2371 107.882 57.4061 108.254 57.4061Z" fill="#151F63"/>
<path d="M114.996 57.4369C115.619 57.4369 116.156 57.2064 116.459 56.8146C116.528 57.2218 116.787 57.4061 117.177 57.4061C117.41 57.4061 117.635 57.337 117.635 57.2832V55.0631C117.635 54.0568 116.978 53.5191 115.645 53.5191C114.356 53.5191 113.733 53.98 113.733 54.4486C113.733 54.9479 114.52 54.9249 114.52 54.9095C114.676 54.6176 114.979 54.3334 115.567 54.3334C116.13 54.3334 116.433 54.5945 116.433 55.0785H116.294C114.443 55.1015 113.577 55.4933 113.577 56.3537C113.577 56.9913 114.114 57.4369 114.996 57.4369ZM115.403 56.7301C114.996 56.7301 114.745 56.5534 114.745 56.2769C114.745 55.8697 115.247 55.7007 116.208 55.6777L116.433 55.67V55.8851C116.433 56.3768 116.009 56.7301 115.403 56.7301Z" fill="#151F63"/>
<path d="M118.975 53.5652C118.733 53.5652 118.517 53.6573 118.517 53.6881V56.8684C118.517 57.2679 118.742 57.3831 119.071 57.3831H119.2C119.512 57.3831 119.737 57.2602 119.737 56.8684V54.9172C119.91 54.6253 120.239 54.4255 120.671 54.4255C121.164 54.4255 121.45 54.7328 121.45 55.2321V56.8684C121.45 57.2679 121.675 57.3831 122.004 57.3831H122.134C122.445 57.3831 122.67 57.2602 122.67 56.8684V55.0708C122.67 54.2104 122.203 53.5191 121.104 53.5191C120.446 53.5191 120.005 53.7956 119.711 54.1797C119.624 53.6958 119.287 53.5652 118.975 53.5652Z" fill="#151F63"/>
<path d="M125.663 52.9813C126.087 52.9813 126.347 52.7739 126.347 52.4282C126.347 52.0825 126.087 51.8828 125.663 51.8828C125.24 51.8828 124.98 52.0902 124.98 52.4282C124.98 52.7739 125.24 52.9813 125.663 52.9813ZM125.603 57.3831H125.733C126.044 57.3831 126.269 57.2602 126.269 56.8684V54.0875C126.269 53.6881 126.053 53.5652 125.724 53.5652H125.594C125.283 53.5652 125.049 53.6958 125.049 54.0875V56.8684C125.049 57.2679 125.283 57.3831 125.603 57.3831Z" fill="#151F63"/>
<path d="M127.678 53.5652C127.436 53.5652 127.22 53.6573 127.22 53.6881V56.8684C127.22 57.2679 127.445 57.3831 127.774 57.3831H127.903C128.215 57.3831 128.44 57.2602 128.44 56.8684V54.9172C128.613 54.6253 128.942 54.4255 129.374 54.4255C129.867 54.4255 130.153 54.7328 130.153 55.2321V56.8684C130.153 57.2679 130.378 57.3831 130.707 57.3831H130.837C131.148 57.3831 131.373 57.2602 131.373 56.8684V55.0708C131.373 54.2104 130.906 53.5191 129.807 53.5191C129.149 53.5191 128.708 53.7956 128.414 54.1797C128.327 53.6958 127.99 53.5652 127.678 53.5652Z" fill="#151F63"/>
<path d="M132.336 54.4486H132.544V56.1693C132.544 57.0144 132.976 57.4522 133.911 57.4522C134.603 57.4522 135.027 57.1449 135.027 56.7685C135.027 56.4689 134.75 56.323 134.733 56.346C134.603 56.492 134.438 56.5995 134.187 56.5995C133.859 56.5995 133.72 56.4152 133.72 56.0464V54.4486H134.473C134.819 54.4486 134.975 54.3103 134.975 54.0491V53.9877C134.975 53.7342 134.828 53.6036 134.482 53.6036H133.746V53.1273C133.746 52.7278 133.53 52.6049 133.201 52.6049H133.097C132.751 52.6049 132.544 52.7739 132.544 53.1273V53.6036H132.336C131.99 53.6036 131.825 53.7418 131.825 54.003V54.0722C131.825 54.318 131.99 54.4486 132.336 54.4486Z" fill="#151F63"/>
<path d="M137.619 57.4522C138.795 57.4522 139.444 56.999 139.444 56.5918C139.444 56.1617 138.865 56.0925 138.856 56.1079C138.657 56.4075 138.302 56.661 137.662 56.661C137.004 56.661 136.52 56.3307 136.433 55.7699H139.349C139.574 55.7699 139.635 55.6623 139.643 55.4703V55.3935C139.643 54.2949 138.787 53.5191 137.541 53.5191C136.26 53.5191 135.335 54.3641 135.335 55.5087C135.335 56.6917 136.243 57.4522 137.619 57.4522ZM137.524 54.2719C138.112 54.2719 138.484 54.6176 138.51 55.14H136.433C136.52 54.633 136.953 54.2719 137.524 54.2719Z" fill="#151F63"/>
<path d="M142.004 58.9733C143.44 58.9733 144.279 58.5123 144.279 57.7902C144.279 57.1603 143.656 56.8761 143.059 56.7301C142.376 56.5765 141.969 56.5534 141.969 56.346C141.969 56.323 141.969 56.2999 141.986 56.2692H142.047C143.224 56.2692 143.976 55.7238 143.976 54.9249C143.976 54.6099 143.838 54.318 143.596 54.0875L144.331 53.4653C144.357 53.4422 144.167 53.0044 143.734 53.0044C143.466 53.0044 143.293 53.1119 143.129 53.3808L142.947 53.6881C142.679 53.5882 142.367 53.5267 142.038 53.5267C140.914 53.5267 140.109 54.1336 140.109 54.9402C140.109 55.5317 140.55 55.9927 141.268 56.177C141.104 56.2846 140.983 56.4382 140.983 56.6149C140.983 56.7609 141.035 56.8838 141.13 56.9606C140.36 57.0604 139.815 57.4061 139.815 57.9285C139.815 58.6429 140.49 58.9733 142.004 58.9733ZM142.038 55.6316C141.571 55.6316 141.234 55.3474 141.234 54.9249C141.234 54.5024 141.562 54.2258 142.03 54.2258C142.514 54.2258 142.843 54.51 142.843 54.9249C142.843 55.3474 142.514 55.6316 142.038 55.6316ZM143.111 57.8286C143.111 58.1206 142.722 58.2896 142.021 58.2896C141.32 58.2896 140.974 58.1282 140.974 57.8671C140.974 57.5675 141.407 57.3908 142.012 57.3524C142.566 57.4676 143.111 57.5214 143.111 57.8286Z" fill="#151F63"/>
<path d="M145.203 53.5652C144.96 53.5652 144.744 53.6573 144.744 53.6881V56.8684C144.744 57.2679 144.969 57.3831 145.298 57.3831H145.428C145.739 57.3831 145.964 57.2602 145.964 56.8684V55.7468C145.964 54.994 146.224 54.5331 146.821 54.5331C147.054 54.5331 147.245 54.6099 147.374 54.7175C147.392 54.7328 147.764 54.5792 147.764 54.149C147.764 53.7649 147.47 53.5191 146.976 53.5191C146.466 53.5191 146.12 53.7726 145.947 54.2028C145.869 53.6958 145.523 53.5652 145.203 53.5652Z" fill="#151F63"/>
<path d="M149.479 57.4369C150.102 57.4369 150.638 57.2064 150.941 56.8146C151.01 57.2218 151.27 57.4061 151.659 57.4061C151.893 57.4061 152.118 57.337 152.118 57.2832V55.0631C152.118 54.0568 151.46 53.5191 150.128 53.5191C148.838 53.5191 148.215 53.98 148.215 54.4486C148.215 54.9479 149.003 54.9249 149.003 54.9095C149.159 54.6176 149.461 54.3334 150.05 54.3334C150.612 54.3334 150.915 54.5945 150.915 55.0785H150.777C148.925 55.1015 148.06 55.4933 148.06 56.3537C148.06 56.9913 148.596 57.4369 149.479 57.4369ZM149.885 56.7301C149.479 56.7301 149.228 56.5534 149.228 56.2769C149.228 55.8697 149.73 55.7007 150.69 55.6777L150.915 55.67V55.8851C150.915 56.3768 150.491 56.7301 149.885 56.7301Z" fill="#151F63"/>
<path d="M153.088 54.4486H153.295V56.1693C153.295 57.0144 153.728 57.4522 154.663 57.4522C155.355 57.4522 155.779 57.1449 155.779 56.7685C155.779 56.4689 155.502 56.323 155.484 56.346C155.355 56.492 155.19 56.5995 154.939 56.5995C154.611 56.5995 154.472 56.4152 154.472 56.0464V54.4486H155.225C155.571 54.4486 155.727 54.3103 155.727 54.0491V53.9877C155.727 53.7342 155.58 53.6036 155.234 53.6036H154.498V53.1273C154.498 52.7278 154.282 52.6049 153.953 52.6049H153.849C153.503 52.6049 153.295 52.7739 153.295 53.1273V53.6036H153.088C152.742 53.6036 152.577 53.7418 152.577 54.003V54.0722C152.577 54.318 152.742 54.4486 153.088 54.4486Z" fill="#151F63"/>
<path d="M158.371 57.4522C159.547 57.4522 160.196 56.999 160.196 56.5918C160.196 56.1617 159.617 56.0925 159.608 56.1079C159.409 56.4075 159.054 56.661 158.414 56.661C157.756 56.661 157.272 56.3307 157.185 55.7699H160.101C160.326 55.7699 160.387 55.6623 160.395 55.4703V55.3935C160.395 54.2949 159.539 53.5191 158.293 53.5191C157.012 53.5191 156.086 54.3641 156.086 55.5087C156.086 56.6917 156.995 57.4522 158.371 57.4522ZM158.276 54.2719C158.864 54.2719 159.236 54.6176 159.262 55.14H157.185C157.272 54.633 157.704 54.2719 158.276 54.2719Z" fill="#151F63"/>
<path d="M162.799 57.4522C163.422 57.4522 163.889 57.1834 164.166 56.7455V56.8684C164.166 57.2679 164.391 57.3831 164.72 57.3831H164.85C165.161 57.3831 165.386 57.2602 165.386 56.8684V52.8815C165.386 52.1824 164.988 52.0134 164.625 52.0134C164.382 52.0134 164.166 52.0979 164.166 52.1363V54.0875C163.915 53.7649 163.431 53.5191 162.816 53.5191C161.648 53.5191 160.844 54.2949 160.844 55.4856C160.844 56.661 161.657 57.4522 162.799 57.4522ZM163.102 56.5918C162.47 56.5918 162.02 56.1386 162.02 55.4856C162.02 54.8173 162.453 54.3871 163.119 54.3871C163.63 54.3871 163.984 54.6176 164.166 54.9863V55.7007C164.166 56.2308 163.682 56.5918 163.102 56.5918Z" fill="#151F63"/>
<path d="M169.508 57.4522C170.131 57.4522 170.598 57.1834 170.875 56.7455V56.8684C170.875 57.2679 171.1 57.3831 171.429 57.3831H171.558C171.87 57.3831 172.095 57.2602 172.095 56.8684V52.8815C172.095 52.1824 171.697 52.0134 171.333 52.0134C171.091 52.0134 170.875 52.0979 170.875 52.1363V54.0875C170.624 53.7649 170.139 53.5191 169.525 53.5191C168.357 53.5191 167.552 54.2949 167.552 55.4856C167.552 56.661 168.366 57.4522 169.508 57.4522ZM169.811 56.5918C169.179 56.5918 168.729 56.1386 168.729 55.4856C168.729 54.8173 169.162 54.3871 169.828 54.3871C170.338 54.3871 170.693 54.6176 170.875 54.9863V55.7007C170.875 56.2308 170.39 56.5918 169.811 56.5918Z" fill="#151F63"/>
<path d="M173.665 52.9813C174.089 52.9813 174.349 52.7739 174.349 52.4282C174.349 52.0825 174.089 51.8828 173.665 51.8828C173.241 51.8828 172.981 52.0902 172.981 52.4282C172.981 52.7739 173.241 52.9813 173.665 52.9813ZM173.604 57.3831H173.734C174.046 57.3831 174.271 57.2602 174.271 56.8684V54.0875C174.271 53.6881 174.054 53.5652 173.726 53.5652H173.596C173.284 53.5652 173.051 53.6958 173.051 54.0875V56.8684C173.051 57.2679 173.284 57.3831 173.604 57.3831Z" fill="#151F63"/>
<path d="M176.909 58.9733C178.345 58.9733 179.184 58.5123 179.184 57.7902C179.184 57.1603 178.561 56.8761 177.964 56.7301C177.281 56.5765 176.874 56.5534 176.874 56.346C176.874 56.323 176.874 56.2999 176.891 56.2692H176.952C178.129 56.2692 178.881 55.7238 178.881 54.9249C178.881 54.6099 178.743 54.318 178.501 54.0875L179.236 53.4653C179.262 53.4422 179.072 53.0044 178.639 53.0044C178.371 53.0044 178.198 53.1119 178.033 53.3808L177.852 53.6881C177.583 53.5882 177.272 53.5267 176.943 53.5267C175.818 53.5267 175.014 54.1336 175.014 54.9402C175.014 55.5317 175.455 55.9927 176.173 56.177C176.009 56.2846 175.888 56.4382 175.888 56.6149C175.888 56.7609 175.94 56.8838 176.035 56.9606C175.265 57.0604 174.72 57.4061 174.72 57.9285C174.72 58.6429 175.394 58.9733 176.909 58.9733ZM176.943 55.6316C176.476 55.6316 176.139 55.3474 176.139 54.9249C176.139 54.5024 176.467 54.2258 176.935 54.2258C177.419 54.2258 177.748 54.51 177.748 54.9249C177.748 55.3474 177.419 55.6316 176.943 55.6316ZM178.016 57.8286C178.016 58.1206 177.627 58.2896 176.926 58.2896C176.225 58.2896 175.879 58.1282 175.879 57.8671C175.879 57.5675 176.312 57.3908 176.917 57.3524C177.471 57.4676 178.016 57.5214 178.016 57.8286Z" fill="#151F63"/>
<path d="M180.298 52.9813C180.722 52.9813 180.981 52.7739 180.981 52.4282C180.981 52.0825 180.722 51.8828 180.298 51.8828C179.874 51.8828 179.614 52.0902 179.614 52.4282C179.614 52.7739 179.874 52.9813 180.298 52.9813ZM180.237 57.3831H180.367C180.679 57.3831 180.904 57.2602 180.904 56.8684V54.0875C180.904 53.6881 180.687 53.5652 180.358 53.5652H180.229C179.917 53.5652 179.684 53.6958 179.684 54.0875V56.8684C179.684 57.2679 179.917 57.3831 180.237 57.3831Z" fill="#151F63"/>
<path d="M182.027 54.4486H182.235V56.1693C182.235 57.0144 182.668 57.4522 183.602 57.4522C184.294 57.4522 184.718 57.1449 184.718 56.7685C184.718 56.4689 184.441 56.323 184.424 56.346C184.294 56.492 184.13 56.5995 183.879 56.5995C183.55 56.5995 183.412 56.4152 183.412 56.0464V54.4486H184.164C184.511 54.4486 184.666 54.3103 184.666 54.0491V53.9877C184.666 53.7342 184.519 53.6036 184.173 53.6036H183.438V53.1273C183.438 52.7278 183.221 52.6049 182.893 52.6049H182.789C182.443 52.6049 182.235 52.7739 182.235 53.1273V53.6036H182.027C181.681 53.6036 181.517 53.7418 181.517 54.003V54.0722C181.517 54.318 181.681 54.4486 182.027 54.4486Z" fill="#151F63"/>
<path d="M186.454 57.4369C187.077 57.4369 187.613 57.2064 187.916 56.8146C187.985 57.2218 188.245 57.4061 188.634 57.4061C188.868 57.4061 189.093 57.337 189.093 57.2832V55.0631C189.093 54.0568 188.435 53.5191 187.103 53.5191C185.813 53.5191 185.19 53.98 185.19 54.4486C185.19 54.9479 185.978 54.9249 185.978 54.9095C186.133 54.6176 186.436 54.3334 187.025 54.3334C187.587 54.3334 187.89 54.5945 187.89 55.0785H187.751C185.9 55.1015 185.035 55.4933 185.035 56.3537C185.035 56.9913 185.571 57.4369 186.454 57.4369ZM186.86 56.7301C186.454 56.7301 186.203 56.5534 186.203 56.2769C186.203 55.8697 186.705 55.7007 187.665 55.6777L187.89 55.67V55.8851C187.89 56.3768 187.466 56.7301 186.86 56.7301Z" fill="#151F63"/>
<path d="M190.563 57.3831H190.692C191.004 57.3831 191.229 57.2602 191.229 56.8684V52.8815C191.229 52.1824 190.831 52.0134 190.467 52.0134C190.225 52.0134 190.009 52.0979 190.009 52.1363V56.8684C190.009 57.2679 190.242 57.3831 190.563 57.3831Z" fill="#151F63"/>
<path d="M192.534 55.9696H194.611C194.94 55.9696 195.113 55.7852 195.113 55.5548V55.3935C195.113 55.163 194.94 54.9786 194.611 54.9786H192.534C192.205 54.9786 192.032 55.163 192.032 55.3935V55.5548C192.032 55.7852 192.205 55.9696 192.534 55.9696Z" fill="#151F63"/>
<path d="M196.339 53.5652C196.097 53.5652 195.88 53.6573 195.88 53.6881V56.8684C195.88 57.2679 196.105 57.3831 196.434 57.3831H196.564C196.875 57.3831 197.1 57.2602 197.1 56.8684V54.8865C197.273 54.6176 197.585 54.4255 197.94 54.4255C198.424 54.4255 198.666 54.6867 198.666 55.2091V56.8684C198.666 57.2679 198.9 57.3831 199.229 57.3831H199.35C199.67 57.3831 199.886 57.2602 199.886 56.8684V54.8865C200.059 54.6176 200.371 54.4255 200.726 54.4255C201.21 54.4255 201.461 54.6867 201.461 55.1861V56.8684C201.461 57.2679 201.686 57.3831 202.015 57.3831H202.145C202.456 57.3831 202.681 57.2602 202.681 56.8684V55.0094C202.681 54.1259 202.231 53.5191 201.158 53.5191C200.457 53.5191 200.016 53.8571 199.731 54.2873C199.532 53.811 199.082 53.5191 198.381 53.5191C197.775 53.5191 197.36 53.7879 197.074 54.1644C196.988 53.6881 196.65 53.5652 196.339 53.5652Z" fill="#151F63"/>
<path d="M204.201 52.9813C204.625 52.9813 204.885 52.7739 204.885 52.4282C204.885 52.0825 204.625 51.8828 204.201 51.8828C203.778 51.8828 203.518 52.0902 203.518 52.4282C203.518 52.7739 203.778 52.9813 204.201 52.9813ZM204.141 57.3831H204.271C204.582 57.3831 204.807 57.2602 204.807 56.8684V54.0875C204.807 53.6881 204.591 53.5652 204.262 53.5652H204.132C203.821 53.5652 203.587 53.6958 203.587 54.0875V56.8684C203.587 57.2679 203.821 57.3831 204.141 57.3831Z" fill="#151F63"/>
<path d="M206.216 53.5652C205.974 53.5652 205.758 53.6573 205.758 53.6881V56.8684C205.758 57.2679 205.983 57.3831 206.312 57.3831H206.441C206.753 57.3831 206.978 57.2602 206.978 56.8684V54.9172C207.151 54.6253 207.48 54.4255 207.912 54.4255C208.405 54.4255 208.691 54.7328 208.691 55.2321V56.8684C208.691 57.2679 208.916 57.3831 209.245 57.3831H209.375C209.686 57.3831 209.911 57.2602 209.911 56.8684V55.0708C209.911 54.2104 209.444 53.5191 208.345 53.5191C207.687 53.5191 207.246 53.7956 206.952 54.1797C206.865 53.6958 206.528 53.5652 206.216 53.5652Z" fill="#151F63"/>
<path d="M211.434 52.9813C211.858 52.9813 212.118 52.7739 212.118 52.4282C212.118 52.0825 211.858 51.8828 211.434 51.8828C211.01 51.8828 210.751 52.0902 210.751 52.4282C210.751 52.7739 211.01 52.9813 211.434 52.9813ZM211.374 57.3831H211.503C211.815 57.3831 212.04 57.2602 212.04 56.8684V54.0875C212.04 53.6881 211.824 53.5652 211.495 53.5652H211.365C211.054 53.5652 210.82 53.6958 210.82 54.0875V56.8684C210.82 57.2679 211.054 57.3831 211.374 57.3831Z" fill="#151F63"/>
<path d="M213.449 53.5652C213.207 53.5652 212.991 53.6573 212.991 53.6881V56.8684C212.991 57.2679 213.216 57.3831 213.544 57.3831H213.674C213.986 57.3831 214.211 57.2602 214.211 56.8684V54.9172C214.384 54.6253 214.712 54.4255 215.145 54.4255C215.638 54.4255 215.924 54.7328 215.924 55.2321V56.8684C215.924 57.2679 216.149 57.3831 216.478 57.3831H216.607C216.919 57.3831 217.144 57.2602 217.144 56.8684V55.0708C217.144 54.2104 216.676 53.5191 215.578 53.5191C214.92 53.5191 214.479 53.7956 214.185 54.1797C214.098 53.6958 213.761 53.5652 213.449 53.5652Z" fill="#151F63"/>
<path d="M219.705 58.9733C221.142 58.9733 221.981 58.5123 221.981 57.7902C221.981 57.1603 221.358 56.8761 220.761 56.7301C220.077 56.5765 219.671 56.5534 219.671 56.346C219.671 56.323 219.671 56.2999 219.688 56.2692H219.749C220.925 56.2692 221.678 55.7238 221.678 54.9249C221.678 54.6099 221.54 54.318 221.297 54.0875L222.033 53.4653C222.059 53.4422 221.868 53.0044 221.436 53.0044C221.168 53.0044 220.994 53.1119 220.83 53.3808L220.648 53.6881C220.38 53.5882 220.069 53.5267 219.74 53.5267C218.615 53.5267 217.81 54.1336 217.81 54.9402C217.81 55.5317 218.252 55.9927 218.97 56.177C218.805 56.2846 218.684 56.4382 218.684 56.6149C218.684 56.7609 218.736 56.8838 218.831 56.9606C218.061 57.0604 217.516 57.4061 217.516 57.9285C217.516 58.6429 218.191 58.9733 219.705 58.9733ZM219.74 55.6316C219.273 55.6316 218.935 55.3474 218.935 54.9249C218.935 54.5024 219.264 54.2258 219.731 54.2258C220.216 54.2258 220.545 54.51 220.545 54.9249C220.545 55.3474 220.216 55.6316 219.74 55.6316ZM220.813 57.8286C220.813 58.1206 220.423 58.2896 219.723 58.2896C219.022 58.2896 218.676 58.1282 218.676 57.8671C218.676 57.5675 219.108 57.3908 219.714 57.3524C220.268 57.4676 220.813 57.5214 220.813 57.8286Z" fill="#151F63"/>
<path d="M224.47 58.8503H224.599C224.911 58.8503 225.136 58.7197 225.136 58.328V56.7685C225.352 57.1449 225.837 57.4522 226.486 57.4522C227.654 57.4522 228.458 56.6456 228.458 55.478C228.458 54.2796 227.645 53.5191 226.503 53.5191C225.863 53.5191 225.387 53.7879 225.118 54.2181C225.041 53.7034 224.695 53.5652 224.374 53.5652C224.132 53.5652 223.916 53.6573 223.916 53.6881V58.328C223.916 58.7274 224.141 58.8503 224.47 58.8503ZM226.191 56.5918C225.612 56.5918 225.153 56.2385 225.136 55.7315V55.0017C225.317 54.6253 225.69 54.3871 226.2 54.3871C226.84 54.3871 227.282 54.8327 227.282 55.4856C227.282 56.1463 226.849 56.5918 226.191 56.5918Z" fill="#151F63"/>
<path d="M229.743 57.3831H229.873C230.184 57.3831 230.409 57.2602 230.409 56.8684V52.8815C230.409 52.1824 230.011 52.0134 229.648 52.0134C229.405 52.0134 229.189 52.0979 229.189 52.1363V56.8684C229.189 57.2679 229.423 57.3831 229.743 57.3831Z" fill="#151F63"/>
<path d="M232.562 57.4369C233.185 57.4369 233.722 57.2064 234.025 56.8146C234.094 57.2218 234.354 57.4061 234.743 57.4061C234.976 57.4061 235.201 57.337 235.201 57.2832V55.0631C235.201 54.0568 234.544 53.5191 233.211 53.5191C231.922 53.5191 231.299 53.98 231.299 54.4486C231.299 54.9479 232.087 54.9249 232.087 54.9095C232.242 54.6176 232.545 54.3334 233.134 54.3334C233.696 54.3334 233.999 54.5945 233.999 55.0785H233.86C232.009 55.1015 231.144 55.4933 231.144 56.3537C231.144 56.9913 231.68 57.4369 232.562 57.4369ZM232.969 56.7301C232.562 56.7301 232.312 56.5534 232.312 56.2769C232.312 55.8697 232.813 55.7007 233.774 55.6777L233.999 55.67V55.8851C233.999 56.3768 233.575 56.7301 232.969 56.7301Z" fill="#151F63"/>
<path d="M236.172 54.4486H236.379V56.1693C236.379 57.0144 236.812 57.4522 237.746 57.4522C238.439 57.4522 238.862 57.1449 238.862 56.7685C238.862 56.4689 238.586 56.323 238.568 56.346C238.439 56.492 238.274 56.5995 238.023 56.5995C237.694 56.5995 237.556 56.4152 237.556 56.0464V54.4486H238.309C238.655 54.4486 238.811 54.3103 238.811 54.0491V53.9877C238.811 53.7342 238.663 53.6036 238.317 53.6036H237.582V53.1273C237.582 52.7278 237.366 52.6049 237.037 52.6049H236.933C236.587 52.6049 236.379 52.7739 236.379 53.1273V53.6036H236.172C235.826 53.6036 235.661 53.7418 235.661 54.003V54.0722C235.661 54.318 235.826 54.4486 236.172 54.4486Z" fill="#151F63"/>
<path d="M239.584 54.4486H239.93V56.8684C239.93 57.2602 240.163 57.3831 240.475 57.3831H240.605C240.933 57.3831 241.15 57.2679 241.15 56.8684V54.4486H241.652C242.006 54.4486 242.162 54.318 242.162 54.0722V54.003C242.162 53.7418 242.006 53.6036 241.652 53.6036H241.106V53.4038C241.106 52.9736 241.271 52.797 241.626 52.797C241.868 52.797 242.084 52.8968 242.205 52.9967C242.223 53.0197 242.465 52.82 242.465 52.5588C242.465 52.2515 242.136 51.9673 241.392 51.9673C240.509 51.9673 239.93 52.3591 239.93 53.4038V53.6036H239.584C239.229 53.6036 239.073 53.7342 239.073 53.9877V54.0491C239.073 54.3103 239.229 54.4486 239.584 54.4486Z" fill="#151F63"/>
<path d="M244.648 57.4522C245.997 57.4522 246.915 56.661 246.915 55.4933C246.915 54.3257 245.997 53.5191 244.665 53.5191C243.324 53.5191 242.398 54.3257 242.398 55.478C242.398 56.661 243.307 57.4522 244.648 57.4522ZM244.656 56.5995C243.973 56.5995 243.471 56.1309 243.471 55.478C243.471 54.8327 243.973 54.3641 244.656 54.3641C245.34 54.3641 245.833 54.8404 245.833 55.4933C245.833 56.1309 245.331 56.5995 244.656 56.5995Z" fill="#151F63"/>
<path d="M248.067 53.5652C247.825 53.5652 247.608 53.6573 247.608 53.6881V56.8684C247.608 57.2679 247.833 57.3831 248.162 57.3831H248.292C248.603 57.3831 248.828 57.2602 248.828 56.8684V55.7468C248.828 54.994 249.088 54.5331 249.685 54.5331C249.918 54.5331 250.109 54.6099 250.238 54.7175C250.256 54.7328 250.628 54.5792 250.628 54.149C250.628 53.7649 250.334 53.5191 249.84 53.5191C249.33 53.5191 248.984 53.7726 248.811 54.2028C248.733 53.6958 248.387 53.5652 248.067 53.5652Z" fill="#151F63"/>
<path d="M251.658 53.5652C251.416 53.5652 251.199 53.6573 251.199 53.6881V56.8684C251.199 57.2679 251.424 57.3831 251.753 57.3831H251.883C252.194 57.3831 252.419 57.2602 252.419 56.8684V54.8865C252.592 54.6176 252.904 54.4255 253.258 54.4255C253.743 54.4255 253.985 54.6867 253.985 55.2091V56.8684C253.985 57.2679 254.219 57.3831 254.548 57.3831H254.669C254.989 57.3831 255.205 57.2602 255.205 56.8684V54.8865C255.378 54.6176 255.69 54.4255 256.045 54.4255C256.529 54.4255 256.78 54.6867 256.78 55.1861V56.8684C256.78 57.2679 257.005 57.3831 257.334 57.3831H257.463C257.775 57.3831 258 57.2602 258 56.8684V55.0094C258 54.1259 257.55 53.5191 256.477 53.5191C255.776 53.5191 255.335 53.8571 255.049 54.2873C254.85 53.811 254.401 53.5191 253.7 53.5191C253.094 53.5191 252.679 53.7879 252.393 54.1644C252.307 53.6881 251.969 53.5652 251.658 53.5652Z" fill="#151F63"/>
<path d="M112.155 38.4306H117.932C126.056 38.4306 131.087 33.8214 131.087 26.4099C131.087 19.0352 126.205 14.5735 118.118 14.5735H112.006C110.329 14.5735 109.1 15.6797 109.1 17.5971V35.4438C109.1 37.1031 110.441 38.4306 112.155 38.4306ZM114.54 33.7845V19.2196H117.969C122.702 19.2196 125.609 21.8745 125.609 26.4467C125.609 31.0928 122.702 33.7845 117.894 33.7845H114.54Z" fill="#132B6B"/>
<path d="M137.147 17.4496C138.973 17.4496 140.091 16.4541 140.091 14.7948C140.091 13.1355 138.973 12.1768 137.147 12.1768C135.321 12.1768 134.203 13.1723 134.203 14.7948C134.203 16.4541 135.321 17.4496 137.147 17.4496ZM136.886 38.5781H137.445C138.787 38.5781 139.756 37.9881 139.756 36.1076V22.7594C139.756 20.842 138.824 20.252 137.408 20.252H136.849C135.507 20.252 134.501 20.8789 134.501 22.7594V36.1076C134.501 38.025 135.507 38.5781 136.886 38.5781Z" fill="#132B6B"/>
<path d="M151.117 46.2109C157.304 46.2109 160.918 43.9985 160.918 40.5324C160.918 37.5088 158.235 36.1444 155.664 35.4438C152.72 34.7064 150.968 34.5958 150.968 33.6002C150.968 33.4896 150.968 33.3789 151.043 33.2314H151.304C156.372 33.2314 159.614 30.6134 159.614 26.7786C159.614 25.2668 159.018 23.8656 157.974 22.7594L161.142 19.7727C161.254 19.662 160.434 17.5603 158.571 17.5603C157.415 17.5603 156.67 18.0765 155.962 19.3671L155.179 20.842C154.024 20.3626 152.683 20.0677 151.266 20.0677C146.422 20.0677 142.956 22.9807 142.956 26.8524C142.956 29.6916 144.857 31.904 147.95 32.789C147.242 33.3052 146.72 34.0427 146.72 34.8907C146.72 35.5913 146.944 36.1813 147.353 36.55C144.037 37.0294 141.689 38.6887 141.689 41.1961C141.689 44.6253 144.596 46.2109 151.117 46.2109ZM151.266 30.171C149.254 30.171 147.801 28.8066 147.801 26.7786C147.801 24.7506 149.217 23.4231 151.229 23.4231C153.316 23.4231 154.732 24.7874 154.732 26.7786C154.732 28.8066 153.316 30.171 151.266 30.171ZM155.887 40.7167C155.887 42.1179 154.21 42.9291 151.192 42.9291C148.173 42.9291 146.683 42.1548 146.683 40.9011C146.683 39.463 148.546 38.615 151.155 38.4306C153.54 38.9837 155.887 39.2418 155.887 40.7167Z" fill="#132B6B"/>
<path d="M165.715 17.4496C167.541 17.4496 168.659 16.4541 168.659 14.7948C168.659 13.1355 167.541 12.1768 165.715 12.1768C163.889 12.1768 162.771 13.1723 162.771 14.7948C162.771 16.4541 163.889 17.4496 165.715 17.4496ZM165.454 38.5781H166.013C167.355 38.5781 168.324 37.9881 168.324 36.1076V22.7594C168.324 20.842 167.392 20.252 165.976 20.252H165.417C164.076 20.252 163.069 20.8789 163.069 22.7594V36.1076C163.069 38.025 164.076 38.5781 165.454 38.5781Z" fill="#132B6B"/>
<path fill-rule="evenodd" clip-rule="evenodd" d="M173.801 2.05857C174.289 2.45585 174.363 3.17381 173.966 3.66217L170.598 7.80212C170.2 8.29048 169.483 8.36431 168.994 7.96702C168.506 7.56973 168.432 6.85178 168.829 6.36342L172.197 2.22347C172.594 1.73511 173.312 1.66128 173.801 2.05857Z" fill="#132B6B"/>
<path fill-rule="evenodd" clip-rule="evenodd" d="M160.94 0.540154C161.53 0.31991 162.187 0.619466 162.407 1.20923L164.429 6.62278C164.649 7.21255 164.349 7.86919 163.76 8.08943C163.17 8.30968 162.513 8.01012 162.293 7.42036L160.271 2.0068C160.051 1.41704 160.351 0.760398 160.94 0.540154Z" fill="#132B6B"/>
<path fill-rule="evenodd" clip-rule="evenodd" d="M152.048 8.66001C152.153 8.03914 152.74 7.62025 153.361 7.72439L159.06 8.68036C159.681 8.78451 160.1 9.37225 159.996 9.99312C159.892 10.614 159.304 11.0329 158.683 10.9287L152.984 9.97277C152.363 9.86863 151.944 9.28088 152.048 8.66001Z" fill="#132B6B"/>
<path d="M174.868 20.3156C173.837 20.3156 172.916 20.7616 172.916 20.9102V36.296C172.916 38.2285 173.874 38.786 175.273 38.786H175.826C177.152 38.786 178.109 38.1913 178.109 36.296V26.7078C178.846 25.407 180.172 24.4779 181.682 24.4779C183.744 24.4779 184.776 25.7415 184.776 28.2686V36.296C184.776 38.2285 185.77 38.786 187.17 38.786H187.685C189.048 38.786 189.969 38.1913 189.969 36.296V26.7078C190.705 25.407 192.031 24.4779 193.541 24.4779C195.604 24.4779 196.672 25.7415 196.672 28.1571V36.296C196.672 38.2285 197.63 38.786 199.029 38.786H199.582C200.907 38.786 201.865 38.1913 201.865 36.296V27.3024C201.865 23.0286 199.95 20.0926 195.383 20.0926C192.4 20.0926 190.521 21.7278 189.306 23.809C188.459 21.5048 186.543 20.0926 183.56 20.0926C180.982 20.0926 179.214 21.3934 177.999 23.2144C177.63 20.9102 176.194 20.3156 174.868 20.3156Z" fill="#FA6B6B"/>
<path d="M208.337 17.4912C210.142 17.4912 211.247 16.4877 211.247 14.8154C211.247 13.143 210.142 12.1768 208.337 12.1768C206.532 12.1768 205.427 13.1802 205.427 14.8154C205.427 16.4877 206.532 17.4912 208.337 17.4912ZM208.079 38.786H208.632C209.957 38.786 210.915 38.1913 210.915 36.296V22.8427C210.915 20.9102 209.994 20.3156 208.595 20.3156H208.042C206.716 20.3156 205.722 20.9474 205.722 22.8427V36.296C205.722 38.2285 206.716 38.786 208.079 38.786Z" fill="#FA6B6B"/>
<path d="M216.914 20.3156C215.883 20.3156 214.962 20.7616 214.962 20.9102V36.296C214.962 38.2285 215.92 38.786 217.319 38.786H217.872C219.198 38.786 220.155 38.1913 220.155 36.296V26.8564C220.892 25.4442 222.291 24.4779 224.133 24.4779C226.232 24.4779 227.448 25.9645 227.448 28.3801V36.296C227.448 38.2285 228.405 38.786 229.805 38.786H230.357C231.683 38.786 232.641 38.1913 232.641 36.296V27.5997C232.641 23.4374 230.652 20.0926 225.975 20.0926C223.175 20.0926 221.297 21.4305 220.045 23.2887C219.676 20.9474 218.24 20.3156 216.914 20.3156Z" fill="#FA6B6B"/>
<path d="M245.129 39.1204C250.138 39.1204 252.9 36.9278 252.9 34.9581C252.9 32.8769 250.432 32.5425 250.395 32.6168C249.548 34.0662 248.038 35.2926 245.313 35.2926C242.514 35.2926 240.451 33.6945 240.083 30.9816H252.495C253.452 30.9816 253.71 30.4613 253.747 29.5322V29.1606C253.747 23.8462 250.101 20.0926 244.797 20.0926C239.346 20.0926 235.405 24.1806 235.405 29.718C235.405 35.4412 239.273 39.1204 245.129 39.1204ZM244.723 23.7347C247.228 23.7347 248.812 25.407 248.922 27.9342H240.083C240.451 25.4814 242.293 23.7347 244.723 23.7347Z" fill="#FA6B6B"/>
<path d="M32.6071 26.1992C29.7736 25.6519 27.8859 27.2585 26.6675 28.2145C21.8702 32.4058 12.0927 41.2298 11.3616 42.9946C10.6306 44.7594 13.7984 60.0543 15.4737 67.4811L53.1672 66.8193L62.3051 35.4942L55.6362 24.9385L53.5666 32.7571C49.4273 29.0778 47.6213 29.7656 43.3441 28.2145C39.0036 26.6404 37.176 27.0815 32.6071 26.1992Z" fill="white"/>
<path d="M54.0073 39.1313H22.2477C21.1549 39.1313 21.1094 39.6653 21.2232 39.9323L26.175 57.5553H50.5923C51.9298 52.2446 54.7073 41.3564 55.1171 40.2883C55.5269 39.2203 54.548 39.0719 54.0073 39.1313Z" fill="#EDEDF3"/>
<path fill-rule="evenodd" clip-rule="evenodd" d="M53.9479 41.3334H23.8832L28.0657 55.3528H50.0826C50.7412 52.9 51.6005 49.7237 52.3777 46.9016C52.8422 45.2146 53.2787 43.6496 53.6259 42.4399C53.7396 42.0437 53.8482 41.6692 53.9479 41.3334ZM22.5507 41.3418C22.5502 41.3414 22.5584 41.3396 22.5769 41.3378C22.5605 41.3414 22.5512 41.3423 22.5507 41.3418ZM57.9627 39.5434C58.1449 40.2008 58.0155 40.82 57.8188 41.3028C57.8207 41.2981 57.8159 41.3099 57.803 41.3462C57.7911 41.3801 57.7756 41.4255 57.7564 41.484C57.718 41.6013 57.6697 41.755 57.6118 41.945C57.4961 42.3243 57.3494 42.8247 57.1783 43.4211C56.8363 44.6125 56.4038 46.1633 55.9404 47.8459C55.014 51.21 53.9694 55.0828 53.2903 57.6225L52.929 58.9735H25.3006L19.8968 40.8607C19.6953 40.2935 19.642 39.4161 20.2935 38.6505C20.9562 37.8717 21.9408 37.7128 22.6908 37.7128H54.8968C55.3489 37.6797 56.1412 37.7009 56.8529 38.1198C57.3071 38.3872 57.7701 38.8486 57.9627 39.5434Z" fill="#151F63"/>
<path d="M60.2741 24.9414H65.1407L64.9189 29.5278H63.0609C62.5964 29.5278 60.5063 29.5278 60.0418 31.0982L54.2358 49.046L52.3779 42.7643L56.2301 28.7961C56.5451 28.0624 56.8861 27.3531 57.246 26.8018C57.4186 26.5373 57.6751 26.1838 58.0266 25.8791C58.2931 25.648 59.2365 24.8858 60.2741 24.9414Z" fill="#151F63"/>
<path d="M33.9431 58.973C33.9431 61.3226 32.0384 63.2273 29.6888 63.2273C27.3393 63.2273 25.4346 61.3226 25.4346 58.973C25.4346 56.6234 27.3393 54.7188 29.6888 54.7188C32.0384 54.7188 33.9431 56.6234 33.9431 58.973Z" fill="#EDEDF3"/>
<path fill-rule="evenodd" clip-rule="evenodd" d="M29.689 56.0235C28.0599 56.0235 26.7393 57.3441 26.7393 58.9731C26.7393 60.6022 28.0599 61.9228 29.689 61.9228C31.318 61.9228 32.6386 60.6022 32.6386 58.9731C32.6386 57.3441 31.318 56.0235 29.689 56.0235ZM24.0166 58.9731C24.0166 55.8404 26.5562 53.3008 29.689 53.3008C32.8217 53.3008 35.3613 55.8404 35.3613 58.9731C35.3613 62.1059 32.8217 64.6455 29.689 64.6455C26.5562 64.6455 24.0166 62.1059 24.0166 58.9731Z" fill="#151F63"/>
<path d="M50.9607 58.973C50.9607 61.3226 49.056 63.2273 46.7064 63.2273C44.3568 63.2273 42.4521 61.3226 42.4521 58.973C42.4521 56.6234 44.3568 54.7188 46.7064 54.7188C49.056 54.7188 50.9607 56.6234 50.9607 58.973Z" fill="#EDEDF3"/>
<path fill-rule="evenodd" clip-rule="evenodd" d="M46.7056 56.0235C45.0765 56.0235 43.7559 57.3441 43.7559 58.9731C43.7559 60.6022 45.0765 61.9228 46.7056 61.9228C48.3346 61.9228 49.6552 60.6022 49.6552 58.9731C49.6552 57.3441 48.3346 56.0235 46.7056 56.0235ZM41.0332 58.9731C41.0332 55.8404 43.5728 53.3008 46.7056 53.3008C49.8383 53.3008 52.3779 55.8404 52.3779 58.9731C52.3779 62.1059 49.8383 64.6455 46.7056 64.6455C43.5728 64.6455 41.0332 62.1059 41.0332 58.9731Z" fill="#151F63"/>
<path d="M21.1807 38.4603L21.8474 40.5379L50.9605 39.3837L49.6271 35.4592L38.7374 30.6113H29.6257L21.1807 38.4603Z" fill="#151F63"/>
<path fill-rule="evenodd" clip-rule="evenodd" d="M26.5842 15.5757L26.5641 16.9364L20.8568 27.941L29.2745 22.7211L39.5177 30.7581L29.5067 30.7875L18.4323 40.3485L18.131 39.9995L17.978 40.7728L5.44352 28.6211L7.09012 17.7776L26.5842 15.5757ZM18.2013 39.6444L29.2514 30.1043L37.5454 30.0799L29.2285 23.5544L20.2879 29.0985L18.2013 39.6444ZM19.8764 28.3458L8.20768 18.3397L25.8888 16.3425L25.8826 16.7649L19.8764 28.3458ZM7.63439 18.749L19.6071 29.0158L17.5511 39.4064L6.17262 28.3754L7.63439 18.749Z" fill="#425483"/>
<path fill-rule="evenodd" clip-rule="evenodd" d="M20.4225 29.2345L5.71165 29.0169L5.72177 28.333L20.4326 28.5506L20.4225 29.2345Z" fill="#425483"/>
<path fill-rule="evenodd" clip-rule="evenodd" d="M29.6237 23.5933L18.5825 40.5518L18.0093 40.1786L29.0505 23.2202L29.6237 23.5933Z" fill="#425483"/>
<path fill-rule="evenodd" clip-rule="evenodd" d="M49.852 34.9376L50.797 37.7725L50.3645 37.9167L49.4856 35.2802L39.0952 31.0221L39.2681 30.6002L49.852 34.9376Z" fill="#425483"/>
<path d="M28.0072 16.8771C27.5509 17.7568 26.4679 18.1001 25.5881 17.6439C24.7084 17.1876 24.365 16.1045 24.8213 15.2248C25.2776 14.345 26.3606 14.0017 27.2404 14.458C28.1202 14.9143 28.4635 15.9973 28.0072 16.8771Z" fill="#FA6B6B"/>
<path d="M21.1357 29.2602C20.8315 29.8467 20.1094 30.0756 19.5229 29.7714C18.9364 29.4672 18.7076 28.7452 19.0117 28.1586C19.3159 27.5721 20.038 27.3433 20.6245 27.6474C21.211 27.9516 21.4398 28.6737 21.1357 29.2602Z" fill="#FA6B6B"/>
<path d="M6.86906 29.0492C6.56489 29.6357 5.84284 29.8646 5.25633 29.5604C4.66983 29.2563 4.44095 28.5342 4.74513 27.9477C5.04931 27.3612 5.77136 27.1323 6.35786 27.4365C6.94437 27.7407 7.17324 28.4627 6.86906 29.0492Z" fill="#FA6B6B"/>
<path d="M8.27339 18.5468C8.0706 18.9378 7.58924 19.0904 7.19823 18.8876C6.80723 18.6848 6.65465 18.2035 6.85743 17.8125C7.06022 17.4215 7.54158 17.2689 7.93259 17.4717C8.32359 17.6745 8.47617 18.1558 8.27339 18.5468Z" fill="#FA6B6B"/>
<path d="M20.4071 40.7294C20.0016 41.5114 19.0388 41.8166 18.2568 41.411C17.4748 41.0054 17.1696 40.0427 17.5752 39.2607C17.9808 38.4787 18.9435 38.1735 19.7255 38.5791C20.5075 38.9847 20.8127 39.9474 20.4071 40.7294Z" fill="#FA6B6B"/>
<path d="M39.352 30.8791C39.0985 31.3678 38.4968 31.5586 38.008 31.3051C37.5193 31.0516 37.3286 30.4499 37.582 29.9611C37.8355 29.4724 38.4372 29.2817 38.926 29.5351C39.4147 29.7886 39.6055 30.3903 39.352 30.8791Z" fill="#FA6B6B"/>
<path d="M31.0214 24.0556C30.6158 24.8376 29.6531 25.1427 28.8711 24.7372C28.0891 24.3316 27.7839 23.3689 28.1895 22.5869C28.595 21.8048 29.5578 21.4997 30.3398 21.9053C31.1218 22.3108 31.427 23.2735 31.0214 24.0556Z" fill="#FA6B6B"/>
<path fill-rule="evenodd" clip-rule="evenodd" d="M29.6885 31.3018L29.9378 30.6113L37.7274 34.0631L49.5417 35.5448L49.4662 36.2837L37.562 34.7907L29.6885 31.3018Z" fill="#425483"/>
<path fill-rule="evenodd" clip-rule="evenodd" d="M36.7788 34.2007L19.9231 39.1196L19.7617 38.3661L36.6174 33.4473L36.7788 34.2007Z" fill="#425483"/>
<path fill-rule="evenodd" clip-rule="evenodd" d="M36.9665 33.4473L50.9612 37.0496L50.7749 37.7015L36.7803 34.0992L36.9665 33.4473Z" fill="#425483"/>
<path d="M38.2202 34.632C37.9667 35.1208 37.365 35.3115 36.8762 35.058C36.3875 34.8045 36.1967 34.2028 36.4502 33.7141C36.7037 33.2253 37.3054 33.0346 37.7942 33.2881C38.2829 33.5416 38.4736 34.1433 38.2202 34.632Z" fill="#FA6B6B"/>
<path d="M50.0839 35.6386C49.8811 36.0296 49.3998 36.1822 49.0088 35.9794C48.6178 35.7766 48.4652 35.2953 48.668 34.9043C48.8708 34.5133 49.3521 34.3607 49.7431 34.5635C50.1341 34.7663 50.2867 35.2476 50.0839 35.6386Z" fill="#FA6B6B"/>
<path d="M30.1869 31.0744C29.9335 31.5632 29.3318 31.7539 28.843 31.5004C28.3543 31.2469 28.1635 30.6452 28.417 30.1565C28.6705 29.6677 29.2722 29.477 29.7609 29.7305C30.2497 29.9839 30.4404 30.5856 30.1869 31.0744Z" fill="#FA6B6B"/>
</svg>
