<svg width="17" height="17" viewBox="0 0 17 17" fill="none" xmlns="http://www.w3.org/2000/svg">
<path d="M15.6071 11.0562C15.6071 12.0029 14.8396 12.7705 13.8929 12.7705H2.70089L4.95801 10.5134L4.14997 9.70536L0.917413 12.9379C0.694338 13.1611 0.694338 13.5227 0.917413 13.746L4.14997 16.9785L4.95801 16.1705L2.70089 13.9134H13.8929C15.47 13.9114 16.748 12.6334 16.75 11.0562V8.77051H15.6071V11.0562Z" fill="#BBB9B9"/>
<path d="M1.89286 6.48479C1.89286 5.53795 2.6603 4.77051 3.60714 4.77051H14.7991L12.542 7.02762L13.35 7.83566L16.5826 4.6031C16.8057 4.37988 16.8057 4.01828 16.5826 3.79506L13.35 0.5625L12.542 1.37054L14.7991 3.62765H3.60714C2.02999 3.62946 0.751814 4.90764 0.75 6.48479V8.77051H1.89286V6.48479Z" fill="#BBB9B9"/>
</svg>
