<svg width="308" height="83" viewBox="0 0 308 83" fill="none" xmlns="http://www.w3.org/2000/svg">
<path d="M9.936 26.468C16.092 26.468 19.476 23.732 19.476 19.088C19.476 14.696 15.804 12.932 11.592 11.996C8.712 11.348 6.624 11.168 6.624 9.152C6.624 7.46 8.1 6.38 10.656 6.38C13.14 6.38 15.48 7.64 16.848 9.26C16.956 9.368 18.972 8.144 18.972 6.488C18.972 4.508 16.236 2.24 10.62 2.24C5.004 2.24 1.512 5.12 1.512 9.44C1.512 14.192 5.328 15.632 9.072 16.46C11.808 17.072 14.148 17.396 14.148 19.484C14.148 21.284 12.672 22.328 9.9 22.328C7.02 22.328 4.356 20.816 2.952 19.124C2.772 18.98 0.936 20.312 0.936 21.788C0.936 23.912 3.744 26.468 9.936 26.468ZM24.3121 8.252C23.3041 8.252 22.4041 8.684 22.4041 8.828V23.732C22.4041 25.604 23.3401 26.144 24.7081 26.144H25.2481C26.5441 26.144 27.4801 25.568 27.4801 23.732V14.444C28.2001 13.184 29.4961 12.284 30.9721 12.284C32.9881 12.284 33.9961 13.508 33.9961 15.956V23.732C33.9961 25.604 34.9681 26.144 36.3361 26.144H36.8401C38.1721 26.144 39.0721 25.568 39.0721 23.732V14.444C39.7921 13.184 41.0881 12.284 42.5641 12.284C44.5801 12.284 45.6241 13.508 45.6241 15.848V23.732C45.6241 25.604 46.5601 26.144 47.9281 26.144H48.4681C49.7641 26.144 50.7001 25.568 50.7001 23.732V15.02C50.7001 10.88 48.8281 8.036 44.3641 8.036C41.4481 8.036 39.6121 9.62 38.4241 11.636C37.5961 9.404 35.7241 8.036 32.8081 8.036C30.2881 8.036 28.5601 9.296 27.3721 11.06C27.0121 8.828 25.6081 8.252 24.3121 8.252ZM59.33 26.396C61.922 26.396 64.154 25.316 65.414 23.48C65.702 25.388 66.782 26.252 68.402 26.252C69.374 26.252 70.31 25.928 70.31 25.676V15.272C70.31 10.556 67.574 8.036 62.03 8.036C56.666 8.036 54.074 10.196 54.074 12.392C54.074 14.732 57.35 14.624 57.35 14.552C57.998 13.184 59.258 11.852 61.706 11.852C64.046 11.852 65.306 13.076 65.306 15.344H64.73C57.026 15.452 53.426 17.288 53.426 21.32C53.426 24.308 55.658 26.396 59.33 26.396ZM61.022 23.084C59.33 23.084 58.286 22.256 58.286 20.96C58.286 19.052 60.374 18.26 64.37 18.152L65.306 18.116V19.124C65.306 21.428 63.542 23.084 61.022 23.084ZM75.8863 8.252C74.8783 8.252 73.9783 8.684 73.9783 8.828V23.732C73.9783 25.604 74.9143 26.144 76.2823 26.144H76.8223C78.1183 26.144 79.0543 25.568 79.0543 23.732V18.476C79.0543 14.948 80.1343 12.788 82.6183 12.788C83.5903 12.788 84.3823 13.148 84.9223 13.652C84.9943 13.724 86.5423 13.004 86.5423 10.988C86.5423 9.188 85.3183 8.036 83.2663 8.036C81.1423 8.036 79.7023 9.224 78.9823 11.24C78.6583 8.864 77.2183 8.252 75.8863 8.252ZM90.0264 12.392H90.8904V20.456C90.8904 24.416 92.6904 26.468 96.5784 26.468C99.4584 26.468 101.222 25.028 101.222 23.264C101.222 21.86 100.07 21.176 99.9984 21.284C99.4584 21.968 98.7744 22.472 97.7304 22.472C96.3624 22.472 95.7864 21.608 95.7864 19.88V12.392H98.9184C100.358 12.392 101.006 11.744 101.006 10.52V10.232C101.006 9.044 100.394 8.432 98.9544 8.432H95.8944V6.2C95.8944 4.328 94.9944 3.752 93.6264 3.752H93.1944C91.7544 3.752 90.8904 4.544 90.8904 6.2V8.432H90.0264C88.5864 8.432 87.9024 9.08 87.9024 10.304V10.628C87.9024 11.78 88.5864 12.392 90.0264 12.392ZM112.32 26.144H113.112C114.624 26.144 115.416 25.244 115.416 23.732V18.44H118.944C125.244 18.44 128.52 15.776 128.52 10.592C128.52 5.444 125.1 2.708 118.944 2.708H112.86C111.132 2.708 110.088 3.788 110.088 5.66V23.732C110.088 25.316 110.916 26.144 112.32 26.144ZM115.344 6.848H118.836C121.788 6.848 123.336 8.18 123.336 10.628C123.336 13.076 121.788 14.444 118.872 14.444H115.344V6.848ZM133.555 26.144H134.095C135.391 26.144 136.327 25.568 136.327 23.732V5.048C136.327 1.772 134.671 0.979998 133.159 0.979998C132.151 0.979998 131.251 1.376 131.251 1.556V23.732C131.251 25.604 132.223 26.144 133.555 26.144ZM145.287 26.396C147.879 26.396 150.111 25.316 151.371 23.48C151.659 25.388 152.739 26.252 154.359 26.252C155.331 26.252 156.267 25.928 156.267 25.676V15.272C156.267 10.556 153.531 8.036 147.987 8.036C142.623 8.036 140.031 10.196 140.031 12.392C140.031 14.732 143.307 14.624 143.307 14.552C143.955 13.184 145.215 11.852 147.663 11.852C150.003 11.852 151.263 13.076 151.263 15.344H150.687C142.983 15.452 139.383 17.288 139.383 21.32C139.383 24.308 141.615 26.396 145.287 26.396ZM146.979 23.084C145.287 23.084 144.243 22.256 144.243 20.96C144.243 19.052 146.331 18.26 150.327 18.152L151.263 18.116V19.124C151.263 21.428 149.499 23.084 146.979 23.084ZM160.304 12.392H161.168V20.456C161.168 24.416 162.968 26.468 166.856 26.468C169.736 26.468 171.5 25.028 171.5 23.264C171.5 21.86 170.348 21.176 170.276 21.284C169.736 21.968 169.052 22.472 168.008 22.472C166.64 22.472 166.064 21.608 166.064 19.88V12.392H169.196C170.636 12.392 171.284 11.744 171.284 10.52V10.232C171.284 9.044 170.672 8.432 169.232 8.432H166.172V6.2C166.172 4.328 165.272 3.752 163.904 3.752H163.472C162.032 3.752 161.168 4.544 161.168 6.2V8.432H160.304C158.864 8.432 158.18 9.08 158.18 10.304V10.628C158.18 11.78 158.864 12.392 160.304 12.392ZM174.5 12.392H175.94V23.732C175.94 25.568 176.912 26.144 178.208 26.144H178.748C180.116 26.144 181.016 25.604 181.016 23.732V12.392H183.104C184.58 12.392 185.228 11.78 185.228 10.628V10.304C185.228 9.08 184.58 8.432 183.104 8.432H180.836V7.496C180.836 5.48 181.52 4.652 182.996 4.652C184.004 4.652 184.904 5.12 185.408 5.588C185.48 5.696 186.488 4.76 186.488 3.536C186.488 2.096 185.12 0.763999 182.024 0.763999C178.352 0.763999 175.94 2.6 175.94 7.496V8.432H174.5C173.024 8.432 172.376 9.044 172.376 10.232V10.52C172.376 11.744 173.024 12.392 174.5 12.392ZM195.57 26.468C201.186 26.468 205.002 22.76 205.002 17.288C205.002 11.816 201.186 8.036 195.642 8.036C190.062 8.036 186.21 11.816 186.21 17.216C186.21 22.76 189.99 26.468 195.57 26.468ZM195.606 22.472C192.762 22.472 190.674 20.276 190.674 17.216C190.674 14.192 192.762 11.996 195.606 11.996C198.45 11.996 200.502 14.228 200.502 17.288C200.502 20.276 198.414 22.472 195.606 22.472ZM209.796 8.252C208.788 8.252 207.888 8.684 207.888 8.828V23.732C207.888 25.604 208.824 26.144 210.192 26.144H210.732C212.028 26.144 212.964 25.568 212.964 23.732V18.476C212.964 14.948 214.044 12.788 216.528 12.788C217.5 12.788 218.292 13.148 218.832 13.652C218.904 13.724 220.452 13.004 220.452 10.988C220.452 9.188 219.228 8.036 217.176 8.036C215.052 8.036 213.612 9.224 212.892 11.24C212.568 8.864 211.128 8.252 209.796 8.252ZM224.738 8.252C223.73 8.252 222.83 8.684 222.83 8.828V23.732C222.83 25.604 223.766 26.144 225.134 26.144H225.674C226.97 26.144 227.906 25.568 227.906 23.732V14.444C228.626 13.184 229.922 12.284 231.398 12.284C233.414 12.284 234.422 13.508 234.422 15.956V23.732C234.422 25.604 235.394 26.144 236.762 26.144H237.266C238.598 26.144 239.498 25.568 239.498 23.732V14.444C240.218 13.184 241.514 12.284 242.99 12.284C245.006 12.284 246.05 13.508 246.05 15.848V23.732C246.05 25.604 246.986 26.144 248.354 26.144H248.894C250.19 26.144 251.126 25.568 251.126 23.732V15.02C251.126 10.88 249.254 8.036 244.79 8.036C241.874 8.036 240.038 9.62 238.85 11.636C238.022 9.404 236.15 8.036 233.234 8.036C230.714 8.036 228.986 9.296 227.798 11.06C227.438 8.828 226.034 8.252 224.738 8.252ZM261.301 12.392H262.741V23.732C262.741 25.568 263.713 26.144 265.009 26.144H265.549C266.917 26.144 267.817 25.604 267.817 23.732V12.392H269.905C271.381 12.392 272.029 11.78 272.029 10.628V10.304C272.029 9.08 271.381 8.432 269.905 8.432H267.637V7.496C267.637 5.48 268.321 4.652 269.797 4.652C270.805 4.652 271.705 5.12 272.209 5.588C272.281 5.696 273.289 4.76 273.289 3.536C273.289 2.096 271.921 0.763999 268.825 0.763999C265.153 0.763999 262.741 2.6 262.741 7.496V8.432H261.301C259.825 8.432 259.177 9.044 259.177 10.232V10.52C259.177 11.744 259.825 12.392 261.301 12.392ZM282.371 26.468C287.987 26.468 291.803 22.76 291.803 17.288C291.803 11.816 287.987 8.036 282.443 8.036C276.863 8.036 273.011 11.816 273.011 17.216C273.011 22.76 276.791 26.468 282.371 26.468ZM282.407 22.472C279.563 22.472 277.475 20.276 277.475 17.216C277.475 14.192 279.563 11.996 282.407 11.996C285.251 11.996 287.303 14.228 287.303 17.288C287.303 20.276 285.215 22.472 282.407 22.472ZM296.597 8.252C295.589 8.252 294.689 8.684 294.689 8.828V23.732C294.689 25.604 295.625 26.144 296.993 26.144H297.533C298.829 26.144 299.765 25.568 299.765 23.732V18.476C299.765 14.948 300.845 12.788 303.329 12.788C304.301 12.788 305.093 13.148 305.633 13.652C305.705 13.724 307.253 13.004 307.253 10.988C307.253 9.188 306.029 8.036 303.977 8.036C301.853 8.036 300.413 9.224 299.693 11.24C299.369 8.864 297.929 8.252 296.597 8.252Z" fill="white"/>
<path d="M12.144 74.572C19.668 74.572 23.804 71.228 23.804 65.552C23.804 60.184 19.316 58.028 14.168 56.884C10.648 56.092 8.096 55.872 8.096 53.408C8.096 51.34 9.9 50.02 13.024 50.02C16.06 50.02 18.92 51.56 20.592 53.54C20.724 53.672 23.188 52.176 23.188 50.152C23.188 47.732 19.844 44.96 12.98 44.96C6.116 44.96 1.848 48.48 1.848 53.76C1.848 59.568 6.512 61.328 11.088 62.34C14.432 63.088 17.292 63.484 17.292 66.036C17.292 68.236 15.488 69.512 12.1 69.512C8.58 69.512 5.324 67.664 3.608 65.596C3.388 65.42 1.144 67.048 1.144 68.852C1.144 71.448 4.576 74.572 12.144 74.572ZM29.7148 52.308C28.4828 52.308 27.3828 52.836 27.3828 53.012V71.228C27.3828 73.516 28.5268 74.176 30.1988 74.176H30.8588C32.4428 74.176 33.5868 73.472 33.5868 71.228V59.876C34.4668 58.336 36.0508 57.236 37.8548 57.236C40.3188 57.236 41.5508 58.732 41.5508 61.724V71.228C41.5508 73.516 42.7388 74.176 44.4108 74.176H45.0268C46.6548 74.176 47.7548 73.472 47.7548 71.228V59.876C48.6348 58.336 50.2188 57.236 52.0228 57.236C54.4868 57.236 55.7628 58.732 55.7628 61.592V71.228C55.7628 73.516 56.9068 74.176 58.5788 74.176H59.2388C60.8228 74.176 61.9668 73.472 61.9668 71.228V60.58C61.9668 55.52 59.6788 52.044 54.2228 52.044C50.6588 52.044 48.4148 53.98 46.9628 56.444C45.9508 53.716 43.6628 52.044 40.0988 52.044C37.0188 52.044 34.9068 53.584 33.4548 55.74C33.0148 53.012 31.2988 52.308 29.7148 52.308ZM72.5144 74.484C75.6824 74.484 78.4104 73.164 79.9504 70.92C80.3024 73.252 81.6224 74.308 83.6024 74.308C84.7904 74.308 85.9344 73.912 85.9344 73.604V60.888C85.9344 55.124 82.5904 52.044 75.8144 52.044C69.2584 52.044 66.0904 54.684 66.0904 57.368C66.0904 60.228 70.0944 60.096 70.0944 60.008C70.8864 58.336 72.4264 56.708 75.4184 56.708C78.2784 56.708 79.8184 58.204 79.8184 60.976H79.1144C69.6984 61.108 65.2984 63.352 65.2984 68.28C65.2984 71.932 68.0264 74.484 72.5144 74.484ZM74.5824 70.436C72.5144 70.436 71.2384 69.424 71.2384 67.84C71.2384 65.508 73.7904 64.54 78.6744 64.408L79.8184 64.364V65.596C79.8184 68.412 77.6624 70.436 74.5824 70.436ZM92.7499 52.308C91.5179 52.308 90.4179 52.836 90.4179 53.012V71.228C90.4179 73.516 91.5619 74.176 93.2339 74.176H93.8939C95.4779 74.176 96.6219 73.472 96.6219 71.228V64.804C96.6219 60.492 97.9419 57.852 100.978 57.852C102.166 57.852 103.134 58.292 103.794 58.908C103.882 58.996 105.774 58.116 105.774 55.652C105.774 53.452 104.278 52.044 101.77 52.044C99.1739 52.044 97.4139 53.496 96.5339 55.96C96.1379 53.056 94.3779 52.308 92.7499 52.308ZM110.032 57.368H111.088V67.224C111.088 72.064 113.288 74.572 118.04 74.572C121.56 74.572 123.716 72.812 123.716 70.656C123.716 68.94 122.308 68.104 122.22 68.236C121.56 69.072 120.724 69.688 119.448 69.688C117.776 69.688 117.072 68.632 117.072 66.52V57.368H120.9C122.66 57.368 123.452 56.576 123.452 55.08V54.728C123.452 53.276 122.704 52.528 120.944 52.528H117.204V49.8C117.204 47.512 116.104 46.808 114.432 46.808H113.904C112.144 46.808 111.088 47.776 111.088 49.8V52.528H110.032C108.272 52.528 107.436 53.32 107.436 54.816V55.212C107.436 56.62 108.272 57.368 110.032 57.368ZM137.28 74.176H138.248C140.096 74.176 141.064 73.076 141.064 71.228V64.76H145.376C153.076 64.76 157.08 61.504 157.08 55.168C157.08 48.876 152.9 45.532 145.376 45.532H137.94C135.828 45.532 134.552 46.852 134.552 49.14V71.228C134.552 73.164 135.564 74.176 137.28 74.176ZM140.976 50.592H145.244C148.852 50.592 150.744 52.22 150.744 55.212C150.744 58.204 148.852 59.876 145.288 59.876H140.976V50.592ZM170.284 74.572C176.268 74.572 179.568 71.976 179.568 69.644C179.568 67.18 176.62 66.784 176.576 66.872C175.564 68.588 173.76 70.04 170.504 70.04C167.16 70.04 164.696 68.148 164.256 64.936H179.084C180.228 64.936 180.536 64.32 180.58 63.22V62.78C180.58 56.488 176.224 52.044 169.888 52.044C163.376 52.044 158.668 56.884 158.668 63.44C158.668 70.216 163.288 74.572 170.284 74.572ZM169.8 56.356C172.792 56.356 174.684 58.336 174.816 61.328H164.256C164.696 58.424 166.896 56.356 169.8 56.356ZM194.3 74.572C201.164 74.572 205.828 70.04 205.828 63.352C205.828 56.664 201.164 52.044 194.388 52.044C187.568 52.044 182.86 56.664 182.86 63.264C182.86 70.04 187.48 74.572 194.3 74.572ZM194.344 69.688C190.868 69.688 188.316 67.004 188.316 63.264C188.316 59.568 190.868 56.884 194.344 56.884C197.82 56.884 200.328 59.612 200.328 63.352C200.328 67.004 197.776 69.688 194.344 69.688ZM212.171 82.58H212.831C214.415 82.58 215.559 81.832 215.559 79.588V70.656C216.659 72.812 219.123 74.572 222.423 74.572C228.363 74.572 232.455 69.952 232.455 63.264C232.455 56.4 228.319 52.044 222.511 52.044C219.255 52.044 216.835 53.584 215.471 56.048C215.075 53.1 213.315 52.308 211.687 52.308C210.455 52.308 209.355 52.836 209.355 53.012V79.588C209.355 81.876 210.499 82.58 212.171 82.58ZM220.927 69.644C217.979 69.644 215.647 67.62 215.559 64.716V60.536C216.483 58.38 218.375 57.016 220.971 57.016C224.227 57.016 226.471 59.568 226.471 63.308C226.471 67.092 224.271 69.644 220.927 69.644ZM238.988 74.176H239.648C241.232 74.176 242.376 73.472 242.376 71.228V48.392C242.376 44.388 240.352 43.42 238.504 43.42C237.272 43.42 236.172 43.904 236.172 44.124V71.228C236.172 73.516 237.36 74.176 238.988 74.176ZM257.683 74.572C263.667 74.572 266.967 71.976 266.967 69.644C266.967 67.18 264.019 66.784 263.975 66.872C262.963 68.588 261.159 70.04 257.903 70.04C254.559 70.04 252.095 68.148 251.655 64.936H266.483C267.627 64.936 267.935 64.32 267.979 63.22V62.78C267.979 56.488 263.623 52.044 257.287 52.044C250.775 52.044 246.067 56.884 246.067 63.44C246.067 70.216 250.687 74.572 257.683 74.572ZM257.199 56.356C260.191 56.356 262.083 58.336 262.215 61.328H251.655C252.095 58.424 254.295 56.356 257.199 56.356Z" fill="#132B6B"/>
</svg>
