<svg width="16" height="16" viewBox="0 0 16 16" fill="none" xmlns="http://www.w3.org/2000/svg">
<path d="M6.87501 0H0.625001C0.279786 0 0 0.279786 0 0.625001V6.87501C0 7.22023 0.279786 7.50001 0.625001 7.50001H6.87501C7.22023 7.50001 7.50001 7.22023 7.50001 6.87501V0.625001C7.50001 0.279786 7.22023 0 6.87501 0ZM6.25001 6.25001H1.25V1.25H6.25001V6.25001ZM15.6143 8.54762C15.3808 8.45082 15.1118 8.50429 14.9331 8.683L8.68312 14.933C8.50429 15.1118 8.45082 15.3806 8.54762 15.6142C8.64443 15.8478 8.87221 16 9.12502 16H15.375C15.7202 16 16 15.7202 16 15.375V9.12502C16 8.87221 15.8478 8.6443 15.6143 8.54762ZM14.75 14.75H10.6339L14.75 10.6339V14.75ZM12.25 7.50001C14.3178 7.50001 16 5.81776 16 3.75001C16 1.68225 14.3178 0 12.25 0C10.1823 0 8.50002 1.68225 8.50002 3.75001C8.50002 5.81776 10.1823 7.50001 12.25 7.50001ZM12.25 1.25C13.6286 1.25 14.75 2.37146 14.75 3.75001C14.75 5.12855 13.6286 6.25001 12.25 6.25001C10.8715 6.25001 9.75002 5.12855 9.75002 3.75001C9.75002 2.37146 10.8715 1.25 12.25 1.25ZM7.31691 9.56703L4.63392 12.25L7.31691 14.933C7.56105 15.1772 7.56105 15.5729 7.31691 15.8169C7.07289 16.0609 6.67714 16.0611 6.43312 15.8169L3.75001 13.1339L1.0669 15.817C0.822878 16.0611 0.427125 16.0611 0.183106 15.817C-0.0610353 15.5729 -0.0610353 15.1772 0.183106 14.9331L2.86609 12.25L0.183106 9.56703C-0.0610353 9.32289 -0.0610353 8.92714 0.183106 8.68312C0.427125 8.43898 0.822878 8.43898 1.0669 8.68312L3.75001 11.3661L6.43312 8.683C6.67714 8.43898 7.07289 8.43898 7.31691 8.683C7.56105 8.92714 7.56105 9.32289 7.31691 9.56703Z" fill="#F66B6B"/>
</svg>
