<svg width="18" height="10" viewBox="0 0 18 10" fill="none" xmlns="http://www.w3.org/2000/svg">
<path d="M0.626725 2.59329H8.66493C9.01105 2.59329 9.29166 2.31269 9.29166 1.96657C9.29166 1.62045 9.01105 1.33984 8.66493 1.33984H0.626725C0.280606 1.33984 0 1.62045 0 1.96657C0 2.31269 0.280606 2.59329 0.626725 2.59329Z" fill="#F66B6B"/>
<path d="M0.626725 5.9429H10.6745C11.0207 5.9429 11.3013 5.6623 11.3013 5.31618C11.3013 4.97006 11.0207 4.68945 10.6745 4.68945H0.626725C0.280606 4.68945 0 4.97006 0 5.31618C0 5.6623 0.280606 5.9429 0.626725 5.9429Z" fill="#F66B6B"/>
<path d="M0.626725 9.29154H12.6841C13.0302 9.29154 13.3108 9.01093 13.3108 8.66481C13.3108 8.31869 13.0302 8.03809 12.6841 8.03809H0.626725C0.280606 8.03809 0 8.31869 0 8.66481C0 9.01093 0.280606 9.29154 0.626725 9.29154Z" fill="#F66B6B"/>
<path d="M14.0238 4.60273C14.1842 4.60273 14.3446 4.54156 14.467 4.41914L17.8163 1.06984C18.061 0.825082 18.061 0.428241 17.8163 0.183568C17.5715 -0.0611893 17.1747 -0.0611893 16.93 0.183568L14.0239 3.08965L12.4575 1.52325C12.2128 1.2785 11.8159 1.2785 11.5713 1.52325C11.3265 1.76801 11.3265 2.16485 11.5713 2.40953L13.5808 4.41906C13.703 4.54156 13.8634 4.60273 14.0238 4.60273Z" fill="#F66B6B"/>
</svg>
