<svg width="428" height="112" viewBox="0 0 428 112" fill="none" xmlns="http://www.w3.org/2000/svg">
<path fill-rule="evenodd" clip-rule="evenodd" d="M63.3652 8.43652H103.565C119.967 8.43652 134.335 12.5981 144.52 21.0678C154.83 29.6413 160.435 42.2905 159.763 58.2094C159.196 71.6447 154.722 82.2475 146.272 89.967C137.933 97.586 126.134 102.015 111.605 104.066L111.415 104.093L90 104.888L92.6542 97.0211L110.712 96.2416C124.318 94.2964 134.327 90.2571 141.033 84.1309C147.659 78.077 151.469 69.6103 151.964 57.8747C152.542 44.1878 147.804 34.0027 139.555 27.1433C131.182 20.1802 118.776 16.3104 103.565 16.3104H71.171V79.6953H104.224C116.537 78.917 124.121 76.2554 128.546 72.3149C132.781 68.543 134.761 63.0028 134.401 54.6698C134.053 46.574 131.005 41.1219 126.419 37.5964C121.706 33.9729 114.934 32.0582 106.687 32.0582H87.9534V61.979H109.419C113.851 61.979 116.307 58.8214 116.605 55.3405C116.755 53.5966 116.308 52.0838 115.525 51.0863C114.821 50.1893 113.599 49.3808 111.371 49.3808H104.466V41.5069H111.371C115.777 41.5069 119.336 43.2574 121.645 46.1989C123.875 49.04 124.672 52.6452 124.382 56.0193C123.803 62.7744 118.648 69.8529 109.419 69.8529H80.1477V24.1843H106.687C116.004 24.1843 124.645 26.332 131.151 31.334C137.785 36.434 141.762 44.1707 142.2 54.3278C142.621 64.1048 140.307 72.3439 133.712 78.2175C127.321 83.9099 117.572 86.7556 104.585 87.5617L104.466 87.5692H63.3652V8.43652Z" fill="#132B6B"/>
<path d="M186.445 95.2321H186.689C187.349 95.2321 187.665 94.9517 187.665 94.391V94.2126C187.665 93.6518 187.364 93.3715 186.689 93.3715H186.445C185.813 93.3715 185.483 93.6518 185.483 94.2126V94.391C185.483 94.9517 185.813 95.2321 186.445 95.2321ZM183.015 95.2321H183.273C183.919 95.2321 184.249 94.9517 184.249 94.391V94.2126C184.249 93.6518 183.933 93.3715 183.273 93.3715H183.015C182.383 93.3715 182.067 93.6518 182.067 94.2126V94.391C182.067 94.9517 182.383 95.2321 183.015 95.2321ZM179.584 95.2321H179.842C180.503 95.2321 180.818 94.9517 180.818 94.391V94.2126C180.818 93.6518 180.503 93.3715 179.842 93.3715H179.584C178.952 93.3715 178.637 93.6518 178.637 94.2126V94.391C178.637 94.9517 178.967 95.2321 179.584 95.2321Z" fill="#151F63"/>
<path d="M190.769 95.283C191.803 95.283 192.693 94.9007 193.195 94.2508C193.31 94.9262 193.741 95.2321 194.387 95.2321C194.774 95.2321 195.147 95.1174 195.147 95.0282V91.3452C195.147 89.6758 194.056 88.7837 191.846 88.7837C189.707 88.7837 188.674 89.5484 188.674 90.3257C188.674 91.1541 189.98 91.1158 189.98 91.0904C190.238 90.6061 190.741 90.1346 191.717 90.1346C192.65 90.1346 193.152 90.5679 193.152 91.3707H192.922C189.851 91.4089 188.416 92.0589 188.416 93.4862C188.416 94.5439 189.305 95.283 190.769 95.283ZM191.444 94.1106C190.769 94.1106 190.353 93.8175 190.353 93.3587C190.353 92.6833 191.186 92.403 192.779 92.3647L193.152 92.352V92.7088C193.152 93.5244 192.449 94.1106 191.444 94.1106Z" fill="#151F63"/>
<path d="M197.371 88.8602C196.969 88.8602 196.61 89.0131 196.61 89.0641V94.34C196.61 95.0027 196.983 95.1938 197.528 95.1938H197.744C198.26 95.1938 198.634 94.9899 198.634 94.34V91.1031C198.921 90.6188 199.466 90.2875 200.184 90.2875C201.002 90.2875 201.476 90.7972 201.476 91.6256V94.34C201.476 95.0027 201.849 95.1938 202.394 95.1938H202.61C203.126 95.1938 203.499 94.9899 203.499 94.34V91.358C203.499 89.9307 202.724 88.7837 200.902 88.7837C199.811 88.7837 199.079 89.2425 198.591 89.8797C198.447 89.0768 197.887 88.8602 197.371 88.8602Z" fill="#151F63"/>
<path d="M208.465 87.8917C209.169 87.8917 209.599 87.5476 209.599 86.9741C209.599 86.4007 209.169 86.0693 208.465 86.0693C207.762 86.0693 207.331 86.4134 207.331 86.9741C207.331 87.5476 207.762 87.8917 208.465 87.8917ZM208.365 95.1938H208.58C209.097 95.1938 209.47 94.9899 209.47 94.34V89.7268C209.47 89.0641 209.111 88.8602 208.566 88.8602H208.351C207.834 88.8602 207.446 89.0768 207.446 89.7268V94.34C207.446 95.0027 207.834 95.1938 208.365 95.1938Z" fill="#151F63"/>
<path d="M211.808 88.8602C211.406 88.8602 211.047 89.0131 211.047 89.0641V94.34C211.047 95.0027 211.421 95.1938 211.966 95.1938H212.181C212.698 95.1938 213.071 94.9899 213.071 94.34V91.1031C213.358 90.6188 213.904 90.2875 214.621 90.2875C215.439 90.2875 215.913 90.7972 215.913 91.6256V94.34C215.913 95.0027 216.286 95.1938 216.832 95.1938H217.047C217.564 95.1938 217.937 94.9899 217.937 94.34V91.358C217.937 89.9307 217.162 88.7837 215.339 88.7837C214.248 88.7837 213.516 89.2425 213.028 89.8797C212.885 89.0768 212.325 88.8602 211.808 88.8602Z" fill="#151F63"/>
<path d="M219.534 90.3257H219.879V93.1803C219.879 94.5821 220.596 95.3085 222.147 95.3085C223.295 95.3085 223.998 94.7988 223.998 94.1743C223.998 93.6773 223.539 93.4352 223.51 93.4734C223.295 93.7156 223.022 93.894 222.606 93.894C222.061 93.894 221.831 93.5881 221.831 92.9764V90.3257H223.08C223.654 90.3257 223.912 90.0963 223.912 89.6631V89.5611C223.912 89.1406 223.668 88.9239 223.094 88.9239H221.874V88.1338C221.874 87.4711 221.515 87.2672 220.97 87.2672H220.797C220.223 87.2672 219.879 87.5476 219.879 88.1338V88.9239H219.534C218.96 88.9239 218.687 89.1533 218.687 89.5866V89.7013C218.687 90.1091 218.96 90.3257 219.534 90.3257Z" fill="#151F63"/>
<path d="M228.298 95.3085C230.25 95.3085 231.327 94.5566 231.327 93.8812C231.327 93.1676 230.365 93.0529 230.351 93.0784C230.021 93.5754 229.432 93.9959 228.37 93.9959C227.279 93.9959 226.475 93.4479 226.332 92.5176H231.169C231.542 92.5176 231.643 92.3392 231.657 92.0206V91.8932C231.657 90.0709 230.236 88.7837 228.169 88.7837C226.045 88.7837 224.509 90.1856 224.509 92.0844C224.509 94.0469 226.016 95.3085 228.298 95.3085ZM228.14 90.0326C229.116 90.0326 229.734 90.6061 229.777 91.4727H226.332C226.475 90.6316 227.193 90.0326 228.14 90.0326Z" fill="#151F63"/>
<path d="M235.573 97.8318C237.955 97.8318 239.348 97.0671 239.348 95.8692C239.348 94.8243 238.314 94.3527 237.324 94.1106C236.19 93.8557 235.515 93.8175 235.515 93.4734C235.515 93.4352 235.515 93.397 235.544 93.346H235.644C237.596 93.346 238.845 92.4412 238.845 91.1158C238.845 90.5933 238.615 90.1091 238.214 89.7268L239.434 88.6945C239.477 88.6563 239.161 87.9299 238.443 87.9299C237.998 87.9299 237.711 88.1083 237.439 88.5544L237.137 89.0641C236.692 88.8984 236.175 88.7965 235.63 88.7965C233.764 88.7965 232.429 89.8032 232.429 91.1413C232.429 92.1226 233.161 92.8872 234.353 93.1931C234.08 93.3715 233.879 93.6263 233.879 93.9195C233.879 94.1616 233.965 94.3655 234.123 94.4929C232.845 94.6586 231.941 95.2321 231.941 96.0986C231.941 97.2838 233.061 97.8318 235.573 97.8318ZM235.63 92.2883C234.855 92.2883 234.295 91.8167 234.295 91.1158C234.295 90.4149 234.841 89.9562 235.616 89.9562C236.419 89.9562 236.965 90.4277 236.965 91.1158C236.965 91.8167 236.419 92.2883 235.63 92.2883ZM237.41 95.933C237.41 96.4172 236.764 96.6976 235.601 96.6976C234.439 96.6976 233.865 96.43 233.865 95.9967C233.865 95.4997 234.582 95.2066 235.587 95.1428C236.506 95.334 237.41 95.4232 237.41 95.933Z" fill="#151F63"/>
<path d="M240.879 88.8602C240.477 88.8602 240.119 89.0131 240.119 89.0641V94.34C240.119 95.0027 240.492 95.1938 241.037 95.1938H241.252C241.769 95.1938 242.142 94.9899 242.142 94.34V92.4794C242.142 91.2305 242.573 90.4659 243.563 90.4659C243.951 90.4659 244.267 90.5933 244.482 90.7718C244.511 90.7972 245.128 90.5424 245.128 89.8287C245.128 89.1915 244.64 88.7837 243.822 88.7837C242.975 88.7837 242.401 89.2043 242.114 89.9179C241.984 89.0768 241.41 88.8602 240.879 88.8602Z" fill="#151F63"/>
<path d="M247.973 95.283C249.006 95.283 249.896 94.9007 250.398 94.2508C250.513 94.9262 250.944 95.2321 251.59 95.2321C251.977 95.2321 252.351 95.1174 252.351 95.0282V91.3452C252.351 89.6758 251.26 88.7837 249.049 88.7837C246.911 88.7837 245.877 89.5484 245.877 90.3257C245.877 91.1541 247.183 91.1158 247.183 91.0904C247.442 90.6061 247.944 90.1346 248.92 90.1346C249.853 90.1346 250.355 90.5679 250.355 91.3707H250.126C247.054 91.4089 245.619 92.0589 245.619 93.4862C245.619 94.5439 246.509 95.283 247.973 95.283ZM248.647 94.1106C247.973 94.1106 247.557 93.8175 247.557 93.3587C247.557 92.6833 248.389 92.403 249.982 92.3647L250.355 92.352V92.7088C250.355 93.5244 249.652 94.1106 248.647 94.1106Z" fill="#151F63"/>
<path d="M253.96 90.3257H254.305V93.1803C254.305 94.5821 255.022 95.3085 256.572 95.3085C257.721 95.3085 258.424 94.7988 258.424 94.1743C258.424 93.6773 257.965 93.4352 257.936 93.4734C257.721 93.7156 257.448 93.894 257.032 93.894C256.486 93.894 256.257 93.5881 256.257 92.9764V90.3257H257.505C258.079 90.3257 258.338 90.0963 258.338 89.6631V89.5611C258.338 89.1406 258.094 88.9239 257.52 88.9239H256.3V88.1338C256.3 87.4711 255.941 87.2672 255.395 87.2672H255.223C254.649 87.2672 254.305 87.5476 254.305 88.1338V88.9239H253.96C253.386 88.9239 253.113 89.1533 253.113 89.5866V89.7013C253.113 90.1091 253.386 90.3257 253.96 90.3257Z" fill="#151F63"/>
<path d="M262.724 95.3085C264.676 95.3085 265.752 94.5566 265.752 93.8812C265.752 93.1676 264.791 93.0529 264.776 93.0784C264.446 93.5754 263.858 93.9959 262.796 93.9959C261.705 93.9959 260.901 93.4479 260.757 92.5176H265.595C265.968 92.5176 266.068 92.3392 266.083 92.0206V91.8932C266.083 90.0709 264.662 88.7837 262.595 88.7837C260.47 88.7837 258.935 90.1856 258.935 92.0844C258.935 94.0469 260.442 95.3085 262.724 95.3085ZM262.566 90.0326C263.542 90.0326 264.159 90.6061 264.202 91.4727H260.757C260.901 90.6316 261.619 90.0326 262.566 90.0326Z" fill="#151F63"/>
<path d="M270.07 95.3085C271.103 95.3085 271.879 94.8625 272.338 94.1361V94.34C272.338 95.0027 272.711 95.1938 273.256 95.1938H273.472C273.989 95.1938 274.362 94.9899 274.362 94.34V87.726C274.362 86.5663 273.701 86.286 273.099 86.286C272.697 86.286 272.338 86.4262 272.338 86.4899V89.7268C271.922 89.1915 271.118 88.7837 270.099 88.7837C268.161 88.7837 266.826 90.0709 266.826 92.0461C266.826 93.9959 268.175 95.3085 270.07 95.3085ZM270.572 93.8812C269.525 93.8812 268.778 93.1293 268.778 92.0461C268.778 90.9374 269.496 90.2238 270.601 90.2238C271.448 90.2238 272.036 90.6061 272.338 91.2178V92.403C272.338 93.2823 271.534 93.8812 270.572 93.8812Z" fill="#151F63"/>
<path d="M281.2 95.3085C282.233 95.3085 283.008 94.8625 283.467 94.1361V94.34C283.467 95.0027 283.841 95.1938 284.386 95.1938H284.601C285.118 95.1938 285.491 94.9899 285.491 94.34V87.726C285.491 86.5663 284.831 86.286 284.228 86.286C283.826 86.286 283.467 86.4262 283.467 86.4899V89.7268C283.051 89.1915 282.247 88.7837 281.228 88.7837C279.291 88.7837 277.956 90.0709 277.956 92.0461C277.956 93.9959 279.305 95.3085 281.2 95.3085ZM281.702 93.8812C280.654 93.8812 279.908 93.1293 279.908 92.0461C279.908 90.9374 280.625 90.2238 281.731 90.2238C282.577 90.2238 283.166 90.6061 283.467 91.2178V92.403C283.467 93.2823 282.664 93.8812 281.702 93.8812Z" fill="#151F63"/>
<path d="M288.096 87.8917C288.799 87.8917 289.23 87.5476 289.23 86.9741C289.23 86.4007 288.799 86.0693 288.096 86.0693C287.393 86.0693 286.962 86.4134 286.962 86.9741C286.962 87.5476 287.393 87.8917 288.096 87.8917ZM287.995 95.1938H288.211C288.727 95.1938 289.101 94.9899 289.101 94.34V89.7268C289.101 89.0641 288.742 88.8602 288.196 88.8602H287.981C287.464 88.8602 287.077 89.0768 287.077 89.7268V94.34C287.077 95.0027 287.464 95.1938 287.995 95.1938Z" fill="#151F63"/>
<path d="M293.477 97.8318C295.859 97.8318 297.252 97.0671 297.252 95.8692C297.252 94.8243 296.218 94.3527 295.228 94.1106C294.094 93.8557 293.419 93.8175 293.419 93.4734C293.419 93.4352 293.419 93.397 293.448 93.346H293.548C295.501 93.346 296.749 92.4412 296.749 91.1158C296.749 90.5933 296.52 90.1091 296.118 89.7268L297.338 88.6945C297.381 88.6563 297.065 87.9299 296.347 87.9299C295.902 87.9299 295.615 88.1083 295.343 88.5544L295.041 89.0641C294.596 88.8984 294.08 88.7965 293.534 88.7965C291.668 88.7965 290.333 89.8032 290.333 91.1413C290.333 92.1226 291.065 92.8872 292.257 93.1931C291.984 93.3715 291.783 93.6263 291.783 93.9195C291.783 94.1616 291.869 94.3655 292.027 94.4929C290.75 94.6586 289.845 95.2321 289.845 96.0986C289.845 97.2838 290.965 97.8318 293.477 97.8318ZM293.534 92.2883C292.759 92.2883 292.199 91.8167 292.199 91.1158C292.199 90.4149 292.745 89.9562 293.52 89.9562C294.324 89.9562 294.869 90.4277 294.869 91.1158C294.869 91.8167 294.324 92.2883 293.534 92.2883ZM295.314 95.933C295.314 96.4172 294.668 96.6976 293.505 96.6976C292.343 96.6976 291.769 96.43 291.769 95.9967C291.769 95.4997 292.486 95.2066 293.491 95.1428C294.41 95.334 295.314 95.4232 295.314 95.933Z" fill="#151F63"/>
<path d="M299.099 87.8917C299.803 87.8917 300.233 87.5476 300.233 86.9741C300.233 86.4007 299.803 86.0693 299.099 86.0693C298.396 86.0693 297.965 86.4134 297.965 86.9741C297.965 87.5476 298.396 87.8917 299.099 87.8917ZM298.999 95.1938H299.214C299.731 95.1938 300.104 94.9899 300.104 94.34V89.7268C300.104 89.0641 299.745 88.8602 299.2 88.8602H298.984C298.468 88.8602 298.08 89.0768 298.08 89.7268V94.34C298.08 95.0027 298.468 95.1938 298.999 95.1938Z" fill="#151F63"/>
<path d="M301.968 90.3257H302.313V93.1803C302.313 94.5821 303.03 95.3085 304.581 95.3085C305.729 95.3085 306.432 94.7988 306.432 94.1743C306.432 93.6773 305.973 93.4352 305.944 93.4734C305.729 93.7156 305.456 93.894 305.04 93.894C304.494 93.894 304.265 93.5881 304.265 92.9764V90.3257H305.513C306.088 90.3257 306.346 90.0963 306.346 89.6631V89.5611C306.346 89.1406 306.102 88.9239 305.528 88.9239H304.308V88.1338C304.308 87.4711 303.949 87.2672 303.404 87.2672H303.231C302.657 87.2672 302.313 87.5476 302.313 88.1338V88.9239H301.968C301.394 88.9239 301.121 89.1533 301.121 89.5866V89.7013C301.121 90.1091 301.394 90.3257 301.968 90.3257Z" fill="#151F63"/>
<path d="M309.311 95.283C310.344 95.283 311.234 94.9007 311.737 94.2508C311.852 94.9262 312.282 95.2321 312.928 95.2321C313.316 95.2321 313.689 95.1174 313.689 95.0282V91.3452C313.689 89.6758 312.598 88.7837 310.388 88.7837C308.249 88.7837 307.215 89.5484 307.215 90.3257C307.215 91.1541 308.522 91.1158 308.522 91.0904C308.78 90.6061 309.282 90.1346 310.258 90.1346C311.191 90.1346 311.694 90.5679 311.694 91.3707H311.464C308.392 91.4089 306.957 92.0589 306.957 93.4862C306.957 94.5439 307.847 95.283 309.311 95.283ZM309.986 94.1106C309.311 94.1106 308.895 93.8175 308.895 93.3587C308.895 92.6833 309.727 92.403 311.321 92.3647L311.694 92.352V92.7088C311.694 93.5244 310.99 94.1106 309.986 94.1106Z" fill="#151F63"/>
<path d="M316.127 95.1938H316.343C316.859 95.1938 317.233 94.9899 317.233 94.34V87.726C317.233 86.5663 316.572 86.286 315.97 86.286C315.568 86.286 315.209 86.4262 315.209 86.4899V94.34C315.209 95.0027 315.596 95.1938 316.127 95.1938Z" fill="#151F63"/>
<path d="M319.398 92.849H322.843C323.389 92.849 323.676 92.5431 323.676 92.1608V91.8932C323.676 91.5109 323.389 91.205 322.843 91.205H319.398C318.853 91.205 318.566 91.5109 318.566 91.8932V92.1608C318.566 92.5431 318.853 92.849 319.398 92.849Z" fill="#151F63"/>
<path d="M325.71 88.8602C325.308 88.8602 324.949 89.0131 324.949 89.0641V94.34C324.949 95.0027 325.322 95.1938 325.868 95.1938H326.083C326.6 95.1938 326.973 94.9899 326.973 94.34V91.0521C327.26 90.6061 327.777 90.2875 328.365 90.2875C329.169 90.2875 329.571 90.7208 329.571 91.5874V94.34C329.571 95.0027 329.959 95.1938 330.504 95.1938H330.705C331.236 95.1938 331.595 94.9899 331.595 94.34V91.0521C331.882 90.6061 332.399 90.2875 332.987 90.2875C333.791 90.2875 334.207 90.7208 334.207 91.5491V94.34C334.207 95.0027 334.58 95.1938 335.126 95.1938H335.341C335.858 95.1938 336.231 94.9899 336.231 94.34V91.256C336.231 89.7905 335.485 88.7837 333.705 88.7837C332.542 88.7837 331.81 89.3445 331.337 90.0581C331.006 89.268 330.26 88.7837 329.097 88.7837C328.093 88.7837 327.404 89.2298 326.93 89.8542C326.787 89.0641 326.227 88.8602 325.71 88.8602Z" fill="#151F63"/>
<path d="M338.753 87.8917C339.457 87.8917 339.887 87.5476 339.887 86.9741C339.887 86.4007 339.457 86.0693 338.753 86.0693C338.05 86.0693 337.619 86.4134 337.619 86.9741C337.619 87.5476 338.05 87.8917 338.753 87.8917ZM338.653 95.1938H338.868C339.385 95.1938 339.758 94.9899 339.758 94.34V89.7268C339.758 89.0641 339.399 88.8602 338.854 88.8602H338.638C338.122 88.8602 337.734 89.0768 337.734 89.7268V94.34C337.734 95.0027 338.122 95.1938 338.653 95.1938Z" fill="#151F63"/>
<path d="M342.096 88.8602C341.694 88.8602 341.335 89.0131 341.335 89.0641V94.34C341.335 95.0027 341.708 95.1938 342.254 95.1938H342.469C342.986 95.1938 343.359 94.9899 343.359 94.34V91.1031C343.646 90.6188 344.191 90.2875 344.909 90.2875C345.727 90.2875 346.201 90.7972 346.201 91.6256V94.34C346.201 95.0027 346.574 95.1938 347.12 95.1938H347.335C347.852 95.1938 348.225 94.9899 348.225 94.34V91.358C348.225 89.9307 347.45 88.7837 345.627 88.7837C344.536 88.7837 343.804 89.2425 343.316 89.8797C343.172 89.0768 342.613 88.8602 342.096 88.8602Z" fill="#151F63"/>
<path d="M350.752 87.8917C351.455 87.8917 351.886 87.5476 351.886 86.9741C351.886 86.4007 351.455 86.0693 350.752 86.0693C350.048 86.0693 349.618 86.4134 349.618 86.9741C349.618 87.5476 350.048 87.8917 350.752 87.8917ZM350.651 95.1938H350.867C351.383 95.1938 351.756 94.9899 351.756 94.34V89.7268C351.756 89.0641 351.398 88.8602 350.852 88.8602H350.637C350.12 88.8602 349.733 89.0768 349.733 89.7268V94.34C349.733 95.0027 350.12 95.1938 350.651 95.1938Z" fill="#151F63"/>
<path d="M354.094 88.8602C353.693 88.8602 353.334 89.0131 353.334 89.0641V94.34C353.334 95.0027 353.707 95.1938 354.252 95.1938H354.468C354.984 95.1938 355.358 94.9899 355.358 94.34V91.1031C355.645 90.6188 356.19 90.2875 356.908 90.2875C357.726 90.2875 358.199 90.7972 358.199 91.6256V94.34C358.199 95.0027 358.573 95.1938 359.118 95.1938H359.333C359.85 95.1938 360.223 94.9899 360.223 94.34V91.358C360.223 89.9307 359.448 88.7837 357.625 88.7837C356.535 88.7837 355.802 89.2425 355.314 89.8797C355.171 89.0768 354.611 88.8602 354.094 88.8602Z" fill="#151F63"/>
<path d="M364.473 97.8318C366.855 97.8318 368.248 97.0671 368.248 95.8692C368.248 94.8243 367.214 94.3527 366.224 94.1106C365.09 93.8557 364.415 93.8175 364.415 93.4734C364.415 93.4352 364.415 93.397 364.444 93.346H364.544C366.497 93.346 367.745 92.4412 367.745 91.1158C367.745 90.5933 367.516 90.1091 367.114 89.7268L368.334 88.6945C368.377 88.6563 368.061 87.9299 367.343 87.9299C366.898 87.9299 366.611 88.1083 366.339 88.5544L366.037 89.0641C365.592 88.8984 365.076 88.7965 364.53 88.7965C362.664 88.7965 361.329 89.8032 361.329 91.1413C361.329 92.1226 362.061 92.8872 363.253 93.1931C362.98 93.3715 362.779 93.6263 362.779 93.9195C362.779 94.1616 362.865 94.3655 363.023 94.4929C361.746 94.6586 360.841 95.2321 360.841 96.0986C360.841 97.2838 361.961 97.8318 364.473 97.8318ZM364.53 92.2883C363.755 92.2883 363.195 91.8167 363.195 91.1158C363.195 90.4149 363.741 89.9562 364.516 89.9562C365.32 89.9562 365.865 90.4277 365.865 91.1158C365.865 91.8167 365.32 92.2883 364.53 92.2883ZM366.31 95.933C366.31 96.4172 365.664 96.6976 364.501 96.6976C363.339 96.6976 362.765 96.43 362.765 95.9967C362.765 95.4997 363.482 95.2066 364.487 95.1428C365.406 95.334 366.31 95.4232 366.31 95.933Z" fill="#151F63"/>
<path d="M372.376 97.6279H372.592C373.108 97.6279 373.481 97.4112 373.481 96.7613V94.1743C373.84 94.7988 374.644 95.3085 375.721 95.3085C377.658 95.3085 378.993 93.9704 378.993 92.0334C378.993 90.0454 377.644 88.7837 375.749 88.7837C374.687 88.7837 373.898 89.2298 373.453 89.9434C373.324 89.0896 372.749 88.8602 372.218 88.8602C371.816 88.8602 371.458 89.0131 371.458 89.0641V96.7613C371.458 97.424 371.831 97.6279 372.376 97.6279ZM375.233 93.8812C374.271 93.8812 373.51 93.295 373.481 92.4539V91.2433C373.783 90.6188 374.4 90.2238 375.247 90.2238C376.309 90.2238 377.041 90.9629 377.041 92.0461C377.041 93.1421 376.323 93.8812 375.233 93.8812Z" fill="#151F63"/>
<path d="M381.124 95.1938H381.34C381.856 95.1938 382.229 94.9899 382.229 94.34V87.726C382.229 86.5663 381.569 86.286 380.966 86.286C380.564 86.286 380.206 86.4262 380.206 86.4899V94.34C380.206 95.0027 380.593 95.1938 381.124 95.1938Z" fill="#151F63"/>
<path d="M385.802 95.283C386.835 95.283 387.725 94.9007 388.227 94.2508C388.342 94.9262 388.773 95.2321 389.419 95.2321C389.806 95.2321 390.18 95.1174 390.18 95.0282V91.3452C390.18 89.6758 389.089 88.7837 386.878 88.7837C384.74 88.7837 383.706 89.5484 383.706 90.3257C383.706 91.1541 385.012 91.1158 385.012 91.0904C385.271 90.6061 385.773 90.1346 386.749 90.1346C387.682 90.1346 388.184 90.5679 388.184 91.3707H387.955C384.883 91.4089 383.448 92.0589 383.448 93.4862C383.448 94.5439 384.338 95.283 385.802 95.283ZM386.476 94.1106C385.802 94.1106 385.385 93.8175 385.385 93.3587C385.385 92.6833 386.218 92.403 387.811 92.3647L388.184 92.352V92.7088C388.184 93.5244 387.481 94.1106 386.476 94.1106Z" fill="#151F63"/>
<path d="M391.789 90.3257H392.133V93.1803C392.133 94.5821 392.851 95.3085 394.401 95.3085C395.55 95.3085 396.253 94.7988 396.253 94.1743C396.253 93.6773 395.794 93.4352 395.765 93.4734C395.55 93.7156 395.277 93.894 394.861 93.894C394.315 93.894 394.086 93.5881 394.086 92.9764V90.3257H395.334C395.908 90.3257 396.167 90.0963 396.167 89.6631V89.5611C396.167 89.1406 395.923 88.9239 395.349 88.9239H394.129V88.1338C394.129 87.4711 393.77 87.2672 393.224 87.2672H393.052C392.478 87.2672 392.133 87.5476 392.133 88.1338V88.9239H391.789C391.215 88.9239 390.942 89.1533 390.942 89.5866V89.7013C390.942 90.1091 391.215 90.3257 391.789 90.3257Z" fill="#151F63"/>
<path d="M397.449 90.3257H398.023V94.34C398.023 94.9899 398.411 95.1938 398.928 95.1938H399.143C399.688 95.1938 400.047 95.0027 400.047 94.34V90.3257H400.88C401.468 90.3257 401.726 90.1091 401.726 89.7013V89.5866C401.726 89.1533 401.468 88.9239 400.88 88.9239H399.975V88.5926C399.975 87.8789 400.248 87.5858 400.837 87.5858C401.238 87.5858 401.597 87.7515 401.798 87.9172C401.827 87.9554 402.229 87.6241 402.229 87.1908C402.229 86.681 401.683 86.2095 400.449 86.2095C398.985 86.2095 398.023 86.8594 398.023 88.5926V88.9239H397.449C396.861 88.9239 396.602 89.1406 396.602 89.5611V89.6631C396.602 90.0963 396.861 90.3257 397.449 90.3257Z" fill="#151F63"/>
<path d="M405.85 95.3085C408.089 95.3085 409.611 93.9959 409.611 92.0589C409.611 90.1218 408.089 88.7837 405.879 88.7837C403.654 88.7837 402.118 90.1218 402.118 92.0334C402.118 93.9959 403.625 95.3085 405.85 95.3085ZM405.864 93.894C404.73 93.894 403.898 93.1166 403.898 92.0334C403.898 90.9629 404.73 90.1855 405.864 90.1855C406.998 90.1855 407.816 90.9757 407.816 92.0589C407.816 93.1166 406.984 93.894 405.864 93.894Z" fill="#151F63"/>
<path d="M411.522 88.8602C411.12 88.8602 410.761 89.0131 410.761 89.0641V94.34C410.761 95.0027 411.134 95.1938 411.68 95.1938H411.895C412.412 95.1938 412.785 94.9899 412.785 94.34V92.4794C412.785 91.2305 413.216 90.4659 414.206 90.4659C414.594 90.4659 414.909 90.5933 415.125 90.7718C415.153 90.7972 415.771 90.5424 415.771 89.8287C415.771 89.1915 415.283 88.7837 414.464 88.7837C413.618 88.7837 413.043 89.2043 412.756 89.9179C412.627 89.0768 412.053 88.8602 411.522 88.8602Z" fill="#151F63"/>
<path d="M417.479 88.8602C417.077 88.8602 416.718 89.0131 416.718 89.0641V94.34C416.718 95.0027 417.092 95.1938 417.637 95.1938H417.852C418.369 95.1938 418.742 94.9899 418.742 94.34V91.0521C419.029 90.6061 419.546 90.2875 420.135 90.2875C420.938 90.2875 421.34 90.7208 421.34 91.5874V94.34C421.34 95.0027 421.728 95.1938 422.273 95.1938H422.474C423.005 95.1938 423.364 94.9899 423.364 94.34V91.0521C423.651 90.6061 424.168 90.2875 424.756 90.2875C425.56 90.2875 425.976 90.7208 425.976 91.5491V94.34C425.976 95.0027 426.35 95.1938 426.895 95.1938H427.11C427.627 95.1938 428 94.9899 428 94.34V91.256C428 89.7905 427.254 88.7837 425.474 88.7837C424.311 88.7837 423.579 89.3445 423.106 90.0581C422.776 89.268 422.029 88.7837 420.867 88.7837C419.862 88.7837 419.173 89.2298 418.699 89.8542C418.556 89.0641 417.996 88.8602 417.479 88.8602Z" fill="#151F63"/>
<path d="M186.058 63.7521H195.64C209.117 63.7521 217.463 56.1059 217.463 43.8107C217.463 31.5768 209.364 24.1753 195.949 24.1753H185.81C183.028 24.1753 180.988 26.0103 180.988 29.1912V58.7973C180.988 61.55 183.214 63.7521 186.058 63.7521ZM190.014 56.0447V31.8826H195.702C203.553 31.8826 208.375 36.2869 208.375 43.8719C208.375 51.5793 203.553 56.0447 195.578 56.0447H190.014Z" fill="#132B6B"/>
<path d="M227.516 28.9465C230.546 28.9465 232.4 27.2949 232.4 24.5423C232.4 21.7896 230.546 20.1992 227.516 20.1992C224.487 20.1992 222.632 21.8508 222.632 24.5423C222.632 27.2949 224.487 28.9465 227.516 28.9465ZM227.084 63.9967H228.011C230.236 63.9967 231.844 63.018 231.844 59.8984V37.7549C231.844 34.5741 230.298 33.5954 227.949 33.5954H227.022C224.796 33.5954 223.127 34.6353 223.127 37.7549V59.8984C223.127 63.0792 224.796 63.9967 227.084 63.9967Z" fill="#132B6B"/>
<path d="M250.692 76.6589C260.954 76.6589 266.951 72.9887 266.951 67.2387C266.951 62.2228 262.5 59.9595 258.234 58.7973C253.35 57.5739 250.445 57.3904 250.445 55.7388C250.445 55.5553 250.445 55.3718 250.568 55.1271H251.001C259.409 55.1271 264.787 50.7841 264.787 44.4224C264.787 41.9145 263.798 39.59 262.067 37.7549L267.322 32.8002C267.508 32.6167 266.148 29.13 263.056 29.13C261.14 29.13 259.904 29.9864 258.729 32.1273L257.431 34.5741C255.514 33.7789 253.289 33.2895 250.939 33.2895C242.903 33.2895 237.153 38.122 237.153 44.5448C237.153 49.2548 240.306 52.925 245.437 54.3931C244.263 55.2495 243.397 56.4729 243.397 57.8798C243.397 59.042 243.768 60.0207 244.448 60.6324C238.946 61.4276 235.051 64.1803 235.051 68.3398C235.051 74.0286 239.873 76.6589 250.692 76.6589ZM250.939 50.0501C247.601 50.0501 245.19 47.7868 245.19 44.4224C245.19 41.0581 247.539 38.856 250.878 38.856C254.34 38.856 256.689 41.1193 256.689 44.4224C256.689 47.7868 254.34 50.0501 250.939 50.0501ZM258.605 67.5446C258.605 69.869 255.823 71.2148 250.816 71.2148C245.808 71.2148 243.335 69.9302 243.335 67.8504C243.335 65.4648 246.426 64.0579 250.754 63.7521C254.711 64.6696 258.605 65.0978 258.605 67.5446Z" fill="#132B6B"/>
<path d="M274.909 28.9465C277.938 28.9465 279.793 27.2949 279.793 24.5423C279.793 21.7896 277.938 20.1992 274.909 20.1992C271.88 20.1992 270.025 21.8508 270.025 24.5423C270.025 27.2949 271.88 28.9465 274.909 28.9465ZM274.476 63.9967H275.403C277.629 63.9967 279.236 63.018 279.236 59.8984V37.7549C279.236 34.5741 277.691 33.5954 275.342 33.5954H274.414C272.189 33.5954 270.519 34.6353 270.519 37.7549V59.8984C270.519 63.0792 272.189 63.9967 274.476 63.9967Z" fill="#132B6B"/>
<path fill-rule="evenodd" clip-rule="evenodd" d="M288.321 3.41508C289.131 4.07414 289.253 5.26517 288.594 6.07531L283.007 12.9431C282.348 13.7533 281.157 13.8758 280.347 13.2167C279.537 12.5576 279.414 11.3666 280.073 10.5565L285.66 3.68863C286.319 2.87849 287.51 2.75601 288.321 3.41508Z" fill="#132B6B"/>
<path fill-rule="evenodd" clip-rule="evenodd" d="M266.986 0.896676C267.965 0.53131 269.054 1.02825 269.419 2.00662L272.773 10.9872C273.138 11.9656 272.641 13.0549 271.663 13.4203C270.685 13.7857 269.595 13.2887 269.23 12.3103L265.876 3.32972C265.511 2.35135 266.008 1.26204 266.986 0.896676Z" fill="#132B6B"/>
<path fill-rule="evenodd" clip-rule="evenodd" d="M252.236 14.3671C252.408 13.3371 253.383 12.6422 254.413 12.8149L263.868 14.4008C264.898 14.5736 265.592 15.5486 265.42 16.5786C265.247 17.6085 264.272 18.3035 263.242 18.1307L253.788 16.5448C252.758 16.372 252.063 15.397 252.236 14.3671Z" fill="#132B6B"/>
<path d="M290.091 33.7009C288.38 33.7009 286.853 34.4407 286.853 34.6873V60.211C286.853 63.4168 288.441 64.3416 290.763 64.3416H291.679C293.879 64.3416 295.468 63.3552 295.468 60.211V44.3049C296.69 42.1471 298.889 40.6058 301.394 40.6058C304.816 40.6058 306.526 42.702 306.526 46.8943V60.211C306.526 63.4168 308.176 64.3416 310.498 64.3416H311.353C313.614 64.3416 315.141 63.3552 315.141 60.211V44.3049C316.363 42.1471 318.563 40.6058 321.068 40.6058C324.49 40.6058 326.262 42.702 326.262 46.7093V60.211C326.262 63.4168 327.85 64.3416 330.172 64.3416H331.088C333.288 64.3416 334.877 63.3552 334.877 60.211V45.2913C334.877 38.2014 331.699 33.331 324.123 33.331C319.174 33.331 316.058 36.0436 314.042 39.4961C312.636 35.6737 309.459 33.331 304.51 33.331C300.233 33.331 297.301 35.4888 295.284 38.5097C294.673 34.6873 292.29 33.7009 290.091 33.7009Z" fill="#FA6B6B"/>
<path d="M345.613 29.0154C348.607 29.0154 350.44 27.3508 350.44 24.5765C350.44 21.8022 348.607 20.1992 345.613 20.1992C342.619 20.1992 340.786 21.8638 340.786 24.5765C340.786 27.3508 342.619 29.0154 345.613 29.0154ZM345.185 64.3416H346.102C348.301 64.3416 349.89 63.3552 349.89 60.211V37.8932C349.89 34.6873 348.362 33.7009 346.04 33.7009H345.124C342.924 33.7009 341.275 34.7489 341.275 37.8932V60.211C341.275 63.4168 342.924 64.3416 345.185 64.3416Z" fill="#FA6B6B"/>
<path d="M359.842 33.7009C358.131 33.7009 356.603 34.4407 356.603 34.6873V60.211C356.603 63.4168 358.192 64.3416 360.514 64.3416H361.43C363.63 64.3416 365.218 63.3552 365.218 60.211V44.5515C366.44 42.2088 368.762 40.6058 371.817 40.6058C375.3 40.6058 377.316 43.0719 377.316 47.0792V60.211C377.316 63.4168 378.905 64.3416 381.226 64.3416H382.143C384.342 64.3416 385.931 63.3552 385.931 60.211V45.7845C385.931 38.8796 382.632 33.331 374.872 33.331C370.229 33.331 367.113 35.5504 365.035 38.633C364.424 34.7489 362.041 33.7009 359.842 33.7009Z" fill="#FA6B6B"/>
<path d="M406.647 64.8965C414.957 64.8965 419.539 61.259 419.539 57.9915C419.539 54.539 415.445 53.9842 415.384 54.1075C413.979 56.5119 411.474 58.5464 406.953 58.5464C402.309 58.5464 398.887 55.8954 398.276 51.3948H418.867C420.455 51.3948 420.883 50.5317 420.944 48.9904V48.3739C420.944 39.5577 414.895 33.331 406.097 33.331C397.054 33.331 390.517 40.1126 390.517 49.2987C390.517 58.793 396.932 64.8965 406.647 64.8965ZM405.975 39.3728C410.13 39.3728 412.757 42.1471 412.94 46.3394H398.276C398.887 42.2704 401.942 39.3728 405.975 39.3728Z" fill="#FA6B6B"/>
<path d="M54.0931 43.4634C49.3925 42.5556 46.261 45.2208 44.2398 46.8066C36.2814 53.7598 20.0614 68.398 18.8487 71.3256C17.6359 74.2533 22.891 99.6262 25.6702 111.947L88.2005 110.849L103.359 58.8831L92.2964 41.3721L88.863 54.3425C81.9963 48.2388 79.0003 49.3799 71.9048 46.8066C64.7043 44.1954 61.6725 44.9272 54.0931 43.4634Z" fill="white"/>
<path d="M89.5923 64.915H36.9059C35.093 64.915 35.0175 65.8009 35.2063 66.2439L43.4209 95.4788H83.9271C86.1459 86.6689 90.7536 68.6063 91.4335 66.8345C92.1133 65.0627 90.4893 64.8166 89.5923 64.915Z" fill="#EDEDF3"/>
<path fill-rule="evenodd" clip-rule="evenodd" d="M89.4951 68.5679H39.6204L46.5589 91.8249H83.0829C84.1755 87.7558 85.601 82.4866 86.8903 77.805C87.6609 75.0065 88.385 72.4102 88.9609 70.4034C89.1495 69.7462 89.3297 69.1249 89.4951 68.5679ZM37.4099 68.5818C37.409 68.5811 37.4227 68.5782 37.4534 68.5752C37.4261 68.5811 37.4108 68.5826 37.4099 68.5818ZM96.1553 65.5984C96.4576 66.689 96.243 67.7161 95.9167 68.5171C95.9198 68.5093 95.9117 68.5289 95.8905 68.5892C95.8707 68.6453 95.845 68.7207 95.8132 68.8178C95.7494 69.0122 95.6692 69.2673 95.5732 69.5824C95.3814 70.2118 95.138 71.0418 94.854 72.0312C94.2868 74.0077 93.5693 76.5802 92.8006 79.3716C91.2638 84.9522 89.5309 91.377 88.4042 95.5902L87.8049 97.8312H41.9717L33.0073 67.7837C32.6731 66.8427 32.5846 65.3872 33.6654 64.1172C34.7648 62.8253 36.3981 62.5616 37.6422 62.5616H91.0693C91.8193 62.5067 93.1336 62.5419 94.3142 63.2369C95.0677 63.6804 95.8359 64.4458 96.1553 65.5984Z" fill="#151F63"/>
<path d="M99.9897 41.3769H108.063L107.695 48.9854H104.613C103.842 48.9854 100.375 48.9854 99.6044 51.5905L89.9727 81.3643L86.8906 70.9435L93.281 47.7715C93.8035 46.5544 94.3693 45.3777 94.9663 44.4632C95.2527 44.0245 95.6783 43.4379 96.2612 42.9324C96.7034 42.5491 98.2683 41.2846 99.9897 41.3769Z" fill="#151F63"/>
<path d="M56.3093 97.8319C56.3093 101.73 53.1495 104.889 49.2518 104.889C45.3541 104.889 42.1943 101.73 42.1943 97.8319C42.1943 93.9341 45.3541 90.7744 49.2518 90.7744C53.1495 90.7744 56.3093 93.9341 56.3093 97.8319Z" fill="#EDEDF3"/>
<path fill-rule="evenodd" clip-rule="evenodd" d="M49.2517 92.9386C46.5493 92.9386 44.3586 95.1294 44.3586 97.8318C44.3586 100.534 46.5493 102.725 49.2517 102.725C51.9542 102.725 54.1449 100.534 54.1449 97.8318C54.1449 95.1294 51.9542 92.9386 49.2517 92.9386ZM39.8418 97.8318C39.8418 92.6349 44.0548 88.4219 49.2517 88.4219C54.4487 88.4219 58.6617 92.6349 58.6617 97.8318C58.6617 103.029 54.4487 107.242 49.2517 107.242C44.0548 107.242 39.8418 103.029 39.8418 97.8318Z" fill="#151F63"/>
<path d="M84.5387 97.8319C84.5387 101.73 81.379 104.889 77.4813 104.889C73.5836 104.889 70.4238 101.73 70.4238 97.8319C70.4238 93.9341 73.5836 90.7744 77.4813 90.7744C81.379 90.7744 84.5387 93.9341 84.5387 97.8319Z" fill="#EDEDF3"/>
<path fill-rule="evenodd" clip-rule="evenodd" d="M77.4812 92.9386C74.7788 92.9386 72.5881 95.1294 72.5881 97.8318C72.5881 100.534 74.7788 102.725 77.4812 102.725C80.1837 102.725 82.3744 100.534 82.3744 97.8318C82.3744 95.1294 80.1837 92.9386 77.4812 92.9386ZM68.0713 97.8318C68.0713 92.6349 72.2843 88.4219 77.4812 88.4219C82.6782 88.4219 86.8912 92.6349 86.8912 97.8318C86.8912 103.029 82.6782 107.242 77.4812 107.242C72.2843 107.242 68.0713 103.029 68.0713 97.8318Z" fill="#151F63"/>
<path d="M35.1357 63.802L36.2418 67.2487L84.5379 65.3338L82.3259 58.8235L64.2609 50.7812H49.1453L35.1357 63.802Z" fill="#151F63"/>
<path fill-rule="evenodd" clip-rule="evenodd" d="M44.1008 25.8391L44.0674 28.0965L34.5995 46.3521L48.5637 37.6928L65.5563 51.0255L48.949 51.0742L30.5775 66.9351L30.0777 66.3561L29.8238 67.639L9.03024 47.4804L11.7618 29.492L44.1008 25.8391ZM30.1942 65.767L48.5255 49.9408L62.2845 49.9005L48.4875 39.0751L33.6558 48.2723L30.1942 65.767ZM32.9731 47.0236L13.6157 30.4244L42.9472 27.1112L42.9369 27.8119L32.9731 47.0236ZM12.6647 31.1035L32.5264 48.1352L29.1157 65.3723L10.2397 47.0727L12.6647 31.1035Z" fill="#425483"/>
<path fill-rule="evenodd" clip-rule="evenodd" d="M33.8786 48.4983L9.47463 48.1374L9.49141 47.0029L33.8954 47.3639L33.8786 48.4983Z" fill="#425483"/>
<path fill-rule="evenodd" clip-rule="evenodd" d="M49.1426 39.1397L30.8262 67.2724L29.8754 66.6533L48.1918 38.5207L49.1426 39.1397Z" fill="#425483"/>
<path fill-rule="evenodd" clip-rule="evenodd" d="M82.7011 57.9586L84.2688 62.6615L83.5512 62.9007L82.0932 58.5269L64.8565 51.4632L65.1433 50.7633L82.7011 57.9586Z" fill="#425483"/>
<path d="M46.4615 27.9978C45.7046 29.4573 43.9079 30.0268 42.4484 29.2699C40.989 28.513 40.4195 26.7163 41.1764 25.2568C41.9333 23.7974 43.73 23.2279 45.1894 23.9848C46.6489 24.7417 47.2184 26.5384 46.4615 27.9978Z" fill="#FA6B6B"/>
<path d="M35.0619 48.5402C34.5573 49.5132 33.3595 49.8929 32.3865 49.3883C31.4135 48.8837 31.0339 47.6858 31.5385 46.7129C32.0431 45.7399 33.2409 45.3602 34.2139 45.8648C35.1868 46.3695 35.5665 47.5673 35.0619 48.5402Z" fill="#FA6B6B"/>
<path d="M11.3959 48.1906C10.8913 49.1636 9.69346 49.5433 8.7205 49.0387C7.74753 48.534 7.36785 47.3362 7.87246 46.3633C8.37707 45.3903 9.57488 45.0106 10.5478 45.5152C11.5208 46.0198 11.9005 47.2176 11.3959 48.1906Z" fill="#FA6B6B"/>
<path d="M13.7242 30.7687C13.3878 31.4173 12.5893 31.6704 11.9406 31.334C11.292 30.9976 11.0389 30.1991 11.3753 29.5504C11.7117 28.9018 12.5102 28.6487 13.1588 28.9851C13.8075 29.3215 14.0606 30.12 13.7242 30.7687Z" fill="#FA6B6B"/>
<path d="M33.8537 67.5657C33.1809 68.863 31.5838 69.3692 30.2865 68.6964C28.9892 68.0236 28.483 66.4265 29.1558 65.1292C29.8286 63.8319 31.4257 63.3257 32.723 63.9985C34.0203 64.6713 34.5265 66.2684 33.8537 67.5657Z" fill="#FA6B6B"/>
<path d="M65.2822 51.2253C64.8617 52.0361 63.8635 52.3525 63.0527 51.932C62.2419 51.5114 61.9255 50.5133 62.346 49.7025C62.7665 48.8917 63.7647 48.5753 64.5755 48.9958C65.3863 49.4163 65.7027 50.4144 65.2822 51.2253Z" fill="#FA6B6B"/>
<path d="M51.4611 39.9065C50.7883 41.2038 49.1912 41.71 47.8939 41.0372C46.5966 40.3644 46.0904 38.7673 46.7632 37.47C47.436 36.1728 49.0331 35.6665 50.3304 36.3393C51.6277 37.0121 52.1339 38.6092 51.4611 39.9065Z" fill="#FA6B6B"/>
<path fill-rule="evenodd" clip-rule="evenodd" d="M49.251 51.9267L49.6646 50.7812L62.5868 56.5074L82.1858 58.9654L82.0605 60.1912L62.3125 57.7145L49.251 51.9267Z" fill="#425483"/>
<path fill-rule="evenodd" clip-rule="evenodd" d="M61.013 56.7363L33.0509 64.8963L32.7832 63.6463L60.7453 55.4863L61.013 56.7363Z" fill="#425483"/>
<path fill-rule="evenodd" clip-rule="evenodd" d="M61.3236 55.4863L84.5395 61.4623L84.2305 62.5438L61.0146 56.5678L61.3236 55.4863Z" fill="#425483"/>
<path d="M63.4033 57.4508C62.9828 58.2616 61.9846 58.578 61.1738 58.1575C60.363 57.737 60.0466 56.7389 60.4671 55.9281C60.8876 55.1172 61.8858 54.8008 62.6966 55.2214C63.5074 55.6419 63.8238 56.64 63.4033 57.4508Z" fill="#FA6B6B"/>
<path d="M83.0846 59.1222C82.7482 59.7708 81.9496 60.024 81.301 59.6876C80.6523 59.3511 80.3992 58.5526 80.7356 57.904C81.072 57.2553 81.8706 57.0022 82.5192 57.3386C83.1678 57.675 83.421 58.4736 83.0846 59.1222Z" fill="#FA6B6B"/>
<path d="M50.0781 51.5495C49.6576 52.3603 48.6594 52.6767 47.8486 52.2562C47.0378 51.8357 46.7214 50.8375 47.1419 50.0267C47.5624 49.2159 48.5606 48.8995 49.3714 49.32C50.1822 49.7405 50.4986 50.7387 50.0781 51.5495Z" fill="#FA6B6B"/>
</svg>
