<svg width="20" height="20" viewBox="0 0 20 20" fill="none" xmlns="http://www.w3.org/2000/svg">
<path d="M6.45656 5.15897C7.57116 4.89279 8.76895 4.74307 10 4.74307C11.3496 4.74307 12.6526 4.92927 13.8042 5.24173C13.7883 5.20257 13.7727 5.16388 13.7572 5.12558M6.45656 5.15897L5.85767 14.159C5.45841 12.9113 5.24214 11.4806 5.24214 10.0166C5.24214 5.34196 7.37153 1.53235 10 1.53235C11.3641 1.53235 12.6784 2.59704 13.5767 4.46026C13.6792 4.6653 13.762 4.87034 13.8479 5.08298C13.8579 5.10798 13.8681 5.13309 13.8783 5.15831C13.8381 5.14724 13.7977 5.13633 13.7572 5.12558M6.45656 5.15897C6.32348 5.19224 6.2403 5.32532 6.27357 5.47505L6.45656 5.15897ZM13.7572 5.12558C13.7562 5.12308 13.7552 5.12058 13.7542 5.11809C13.6686 4.90622 13.5878 4.70611 13.4873 4.50498L13.4866 4.50369L13.4866 4.50369C12.5957 2.65581 11.3082 1.63235 10 1.63235C8.7382 1.63235 7.57556 2.54787 6.72264 4.07036C5.87154 5.58959 5.34214 7.6932 5.34214 10.0166C5.34214 11.4517 5.55138 12.8535 5.93715 14.0788C7.14628 14.4487 8.53234 14.6579 10 14.6579C12.3234 14.6579 14.427 14.1285 15.9463 13.2774C17.4688 12.4244 18.3843 11.2618 18.3843 10C18.3843 8.46035 17.0324 7.07137 14.901 6.25085L14.9013 6.25191L14.9017 6.25347L14.902 6.25503L14.9024 6.25659L14.9028 6.25815L14.9032 6.25971L14.9036 6.26127L14.904 6.26283L14.9044 6.26439L14.9048 6.26595L14.9052 6.26751L14.9056 6.26907L14.9059 6.27063L14.9063 6.27219L14.9067 6.27375L14.9071 6.27531L14.9075 6.27687L14.9079 6.27843L14.9083 6.27999L14.9087 6.28155L14.9091 6.28311L14.9095 6.28467L14.9098 6.28622L14.9102 6.28778L14.9106 6.28934L14.911 6.2909L14.9114 6.29246L14.9118 6.29402L14.9122 6.29558L14.9126 6.29714L14.913 6.2987L14.9134 6.30026L14.9137 6.30182L14.9141 6.30338L14.9145 6.30494L14.9149 6.3065L14.9153 6.30806L14.9157 6.30962L14.9161 6.31118L14.9165 6.31274L14.9169 6.3143L14.9173 6.31586L14.9176 6.31742L14.918 6.31898L14.9184 6.32054L14.9188 6.3221L14.9192 6.32366L14.9196 6.32522L14.92 6.32678L14.9204 6.32833L14.9208 6.32989L14.9212 6.33145L14.9215 6.33301L14.9219 6.33457L14.9223 6.33613L14.9227 6.33769L14.9231 6.33925L14.9235 6.34081L14.9239 6.34237L14.9243 6.34393L14.9247 6.34549L14.9251 6.34705L14.9254 6.34861L14.9258 6.35017L14.9262 6.35173L14.9266 6.35329L14.927 6.35485L14.9274 6.35641L14.9278 6.35797L14.9282 6.35953L14.9286 6.36109L14.929 6.36265L14.9293 6.36421L14.9297 6.36577L14.9301 6.36732L14.9305 6.36888L14.9309 6.37044L14.9313 6.372L14.9317 6.37356L14.9321 6.37512L14.9325 6.37668L14.9329 6.37824L14.9332 6.3798L14.9336 6.38136L14.934 6.38292L14.9344 6.38448L14.9348 6.38604L14.9352 6.3876L14.9356 6.38916L14.936 6.39072L14.9364 6.39228L14.9368 6.39384L14.9371 6.3954L14.9375 6.39696L14.9379 6.39852L14.9383 6.40008L14.9387 6.40164L14.9391 6.4032L14.9395 6.40476L14.9399 6.40632L14.9403 6.40787L14.9406 6.40943L14.941 6.41099L14.9414 6.41255L14.9418 6.41411L14.9422 6.41567L14.9426 6.41723L14.943 6.41879L14.9434 6.42035L14.9438 6.42191L14.9442 6.42347L14.9445 6.42503L14.9449 6.42659L14.9453 6.42815L14.9457 6.42971L14.9461 6.43127L14.9465 6.43283L14.9469 6.43439L14.9473 6.43595L14.9477 6.43751L14.9481 6.43907L14.9484 6.44063L14.9488 6.44219L14.9492 6.44375L14.9496 6.44531L14.95 6.44687L14.9504 6.44842L14.9508 6.44998L14.9512 6.45154L14.9516 6.4531L14.952 6.45466L14.9523 6.45622L14.9527 6.45778L14.9531 6.45934L14.9535 6.4609L14.9539 6.46246L14.9543 6.46402L14.9547 6.46558L14.9551 6.46714L14.9555 6.4687L14.9559 6.47026L14.9562 6.47182L14.9566 6.47338L14.957 6.47494L14.9574 6.4765L14.9578 6.47806L14.9582 6.47962L14.9586 6.48118L14.959 6.48274L14.9594 6.4843L14.9598 6.48586L14.9601 6.48741L14.9605 6.48897L14.9609 6.49053L14.9613 6.49209L14.9617 6.49365L14.9621 6.49521L14.9625 6.49677L14.9629 6.49833L14.9633 6.49989L14.9637 6.50145L14.964 6.50301L14.9644 6.50457L14.9648 6.50613L14.9652 6.50769L14.9656 6.50925L14.966 6.51081L14.9664 6.51237L14.9668 6.51393L14.9672 6.51549L14.9676 6.51705L14.9679 6.51861L14.9683 6.52017L14.9687 6.52173L14.9691 6.52329L14.9695 6.52485L14.9699 6.52641L14.9703 6.52797L14.9707 6.52952L14.9711 6.53108L14.9715 6.53264L14.9718 6.5342L14.9722 6.53576L14.9726 6.53732L14.973 6.53888L14.9734 6.54044L14.9738 6.542L14.9742 6.54356L14.9746 6.54512L14.975 6.54668L14.9754 6.54824L14.9757 6.5498L14.9761 6.55136L14.9765 6.55292L14.9769 6.55448L14.9773 6.55604L14.9777 6.5576L14.9781 6.55916L14.9785 6.56072L14.9789 6.56228L14.9792 6.56384L14.9796 6.5654L14.98 6.56696L14.9804 6.56851L14.9808 6.57007L14.9812 6.57163L14.9816 6.57319L14.982 6.57475L14.9824 6.57631L14.9828 6.57787L14.9831 6.57943L14.9835 6.58099L14.9839 6.58255L14.9843 6.58411L14.9847 6.58567L14.9851 6.58723L14.9855 6.58879L14.9859 6.59035L14.9863 6.59191L14.9867 6.59347L14.987 6.59503L14.9874 6.59659L14.9878 6.59815L14.9882 6.59971L14.9886 6.60127L14.989 6.60283L14.9894 6.60439L14.9898 6.60595L14.9902 6.60751L14.9906 6.60906L14.9909 6.61062L14.9913 6.61218L14.9917 6.61374L14.9921 6.6153L14.9925 6.61686L14.9929 6.61842L14.9933 6.61998L14.9937 6.62154L14.9941 6.6231L14.9945 6.62466L14.9948 6.62622L14.9952 6.62778L14.9956 6.62934L14.996 6.6309L14.9964 6.63246L14.9968 6.63402L14.9972 6.63558L14.9976 6.63714L14.998 6.6387L14.9984 6.64026L14.9987 6.64182L14.9991 6.64338L14.9995 6.64494L14.9999 6.6465L15.0003 6.64806L15.0007 6.64961L15.0011 6.65117L15.0015 6.65273L15.0019 6.65429L15.0023 6.65585L15.0026 6.65741L15.003 6.65897L15.0034 6.66053L15.0038 6.66209L15.0042 6.66365L15.0046 6.66521L15.005 6.66677L15.0054 6.66833L15.0058 6.66989L15.0062 6.67145L15.0065 6.67301L15.0069 6.67457L15.0073 6.67613L15.0077 6.67769L15.0081 6.67925L15.0085 6.68081L15.0089 6.68237L15.0093 6.68393L15.0097 6.68549L15.0101 6.68705L15.0104 6.6886L15.0108 6.69016L15.0112 6.69172L15.0116 6.69328L15.012 6.69484L15.0124 6.6964L15.0128 6.69796L15.0132 6.69952L15.0136 6.70108L15.014 6.70264L15.0143 6.7042L15.0147 6.70576L15.0151 6.70732L15.0155 6.70888L15.0159 6.71044L15.0163 6.712L15.0167 6.71356L15.0171 6.71512L15.0175 6.71668L15.0178 6.71824L15.0182 6.7198L15.0186 6.72136L15.019 6.72292L15.0194 6.72448L15.0198 6.72604L15.0202 6.7276L15.0206 6.72916L15.021 6.73071L15.0214 6.73227L15.0217 6.73383L15.0221 6.73539L15.0225 6.73695L15.0229 6.73851L15.0233 6.74007L15.0237 6.74163L15.0241 6.74319L15.0245 6.74475L15.0249 6.74631L15.0253 6.74787L15.0256 6.74943L15.026 6.75099L15.0264 6.75255L15.0268 6.75411L15.0272 6.75567L15.0276 6.75723L15.028 6.75879L15.0284 6.76035L15.0288 6.76191L15.0292 6.76347L15.0295 6.76503L15.0299 6.76659L15.0303 6.76815L15.0307 6.7697L15.0311 6.77126L15.0315 6.77282L15.0319 6.77438L15.0323 6.77594L15.0327 6.7775L15.0331 6.77906L15.0334 6.78062L15.0338 6.78218L15.0342 6.78374L15.0346 6.7853L15.035 6.78686L15.0354 6.78842L15.0358 6.78998L15.0362 6.79154L15.0366 6.7931L15.037 6.79466L15.0373 6.79622L15.0377 6.79778L15.0381 6.79934L15.0385 6.8009L15.0389 6.80246L15.0393 6.80402L15.0397 6.80558L15.0401 6.80714L15.0405 6.8087L15.0409 6.81025L15.0412 6.81181L15.0416 6.81337L15.042 6.81493L15.0424 6.81649L15.0428 6.81805L15.0432 6.81961L15.0436 6.82117L15.044 6.82273L15.0444 6.82429L15.0448 6.82585L15.0451 6.82741L15.0455 6.82897L15.0459 6.83053L15.0463 6.83209L15.0467 6.83365L15.0471 6.83521L15.0475 6.83677L15.0479 6.83833L15.0483 6.83989L15.0487 6.84145L15.049 6.84301L15.0494 6.84457L15.0498 6.84613L15.0502 6.84769L15.0506 6.84925L15.051 6.8508L15.0514 6.85236L15.0518 6.85392L15.0522 6.85548L15.0526 6.85704L15.0529 6.8586L15.0533 6.86016L15.0537 6.86172L15.0541 6.86328L15.0545 6.86484L15.0553 6.86791L15.0552 6.86792C15.273 7.87308 15.3902 8.94487 15.3902 10.0333C15.3902 11.2559 15.2395 12.4448 14.9716 13.5667L14.9713 13.5677C14.9237 13.7582 14.7167 13.8691 14.534 13.8234C14.3435 13.7758 14.2326 13.569 14.2782 13.3863C14.5423 12.3133 14.6745 11.1902 14.6745 10.0166C14.6745 8.97474 14.5752 7.95077 14.3608 6.99415L14.3607 6.99352C14.2819 6.63119 14.1884 6.26989 14.0802 5.93801C12.8709 5.56801 11.4846 5.35878 10.0166 5.35878C8.82625 5.35878 7.68644 5.49105 6.61355 5.75514L6.61135 5.75568L6.61134 5.75566C6.41212 5.79993 6.2238 5.6883 6.17655 5.4993L6.17592 5.49675L6.17595 5.49674C6.13168 5.29752 6.24331 5.1092 6.43231 5.06195L6.43333 5.06169L6.43333 5.0617C7.55535 4.79376 8.76092 4.64307 10 4.64307C11.33 4.64307 12.6153 4.82268 13.7572 5.12558ZM4.48741 5.73248L4.48741 5.73248L4.48619 5.73302C2.22415 6.73837 0.9 8.27894 0.9 10C0.9 11.985 2.73122 13.6973 5.37971 14.6202C5.5949 15.2407 5.85781 15.829 6.15313 16.354L6.15368 16.355C7.16138 18.1016 8.51959 19.1 10 19.1C11.7209 19.1 13.2782 17.7761 14.2837 15.4969L14.2839 15.497L14.2859 15.4917C14.3508 15.3185 14.29 15.1036 14.0943 15.0302C13.9221 14.9656 13.7085 15.0254 13.634 15.2187C12.7252 17.2495 11.3877 18.3843 10 18.3843C8.80296 18.3843 7.64893 17.5538 6.75954 16.0056L6.75921 16.0051C6.5607 15.6648 6.38602 15.2863 6.2245 14.89C7.37975 15.1935 8.65243 15.3736 10 15.3736C12.4934 15.3736 14.7615 14.7797 16.4096 13.8148C18.0552 12.8513 19.1 11.5059 19.1 10C19.1 8.01517 17.269 6.30275 14.6368 5.37988C14.4902 4.96096 14.3271 4.55624 14.1321 4.16636C13.1258 2.12038 11.6182 0.9 10 0.9C8.49412 0.9 7.14866 1.94476 6.18519 3.59042C5.22028 5.23854 4.62643 7.50661 4.62643 10C4.62643 11.3326 4.79182 12.6061 5.10889 13.7777C2.96486 12.926 1.61571 11.5382 1.61571 10C1.61571 8.61223 2.73402 7.29135 4.76471 6.38263C4.86137 6.34522 4.92475 6.26705 4.95549 6.18322C4.98594 6.10018 4.98745 6.00383 4.95234 5.92022C4.91508 5.82299 4.83666 5.75928 4.75254 5.72843C4.66879 5.69772 4.57151 5.69644 4.48741 5.73248Z" fill="#F66B6B" stroke="#F66B6B" stroke-width="0.2"/>
<path d="M7.94563 10.3111C8.1878 10.2188 8.30312 10.0573 8.30312 9.8613C8.30312 9.59606 8.07248 9.37695 7.65733 9.37695C7.40362 9.37695 7.17298 9.44615 7.05766 9.52687L7.14992 9.84977C7.23064 9.80364 7.39209 9.73445 7.55354 9.73445C7.73805 9.73445 7.84184 9.81517 7.84184 9.93049C7.84184 10.0919 7.6458 10.1496 7.49588 10.1496H7.3229V10.4725H7.50741C7.70346 10.4725 7.8995 10.5532 7.8995 10.7493C7.8995 10.8992 7.78418 11.003 7.54201 11.003C7.35749 11.003 7.17298 10.9223 7.09226 10.8877L7 11.2221C7.11532 11.2913 7.3229 11.3605 7.5766 11.3605C8.06095 11.3605 8.36078 11.1068 8.36078 10.7723C8.37232 10.5302 8.17627 10.3572 7.94563 10.3111Z" fill="#F66B6B"/>
<path d="M9.51395 10.0458C9.32943 10.0458 9.20258 10.1035 9.11032 10.1957H9.09879C9.14492 9.96509 9.32943 9.76904 9.73306 9.73445C9.80225 9.72292 9.85991 9.72292 9.90604 9.72292V9.37695C9.85991 9.37695 9.81378 9.37695 9.72152 9.37695C9.42169 9.38849 9.16798 9.49227 8.97194 9.66526C8.76436 9.8613 8.62598 10.1611 8.62598 10.5186C8.62598 10.9799 8.87968 11.3605 9.38709 11.3605C9.80225 11.3605 10.1021 11.0491 10.1021 10.6685C10.1021 10.2765 9.83684 10.0458 9.51395 10.0458ZM9.38709 11.0376C9.17952 11.0376 9.08726 10.8531 9.07573 10.6455C9.07573 10.5878 9.08726 10.5532 9.09879 10.5302C9.14492 10.4379 9.24871 10.3572 9.36403 10.3572C9.56007 10.3572 9.65233 10.5071 9.65233 10.6916C9.65233 10.8992 9.54854 11.0376 9.38709 11.0376Z" fill="#F66B6B"/>
<path d="M11.0125 9.37695C10.5166 9.37695 10.2744 9.81517 10.2744 10.3802C10.2744 10.9222 10.4935 11.372 10.9894 11.372C11.4853 11.372 11.7274 10.9684 11.7274 10.3687C11.7274 9.83823 11.5314 9.37695 11.0125 9.37695ZM11.0125 11.026C10.8395 11.026 10.7357 10.8185 10.7357 10.3687C10.7357 9.91896 10.851 9.71138 11.0125 9.71138C11.197 9.71138 11.2892 9.94202 11.2892 10.3687C11.2777 10.8069 11.1854 11.026 11.0125 11.026Z" fill="#F66B6B"/>
<path d="M12.0851 8.2002C11.7276 8.2002 11.4277 8.4885 11.4277 8.85752C11.4277 9.21502 11.716 9.51485 12.0851 9.51485C12.4426 9.51485 12.7424 9.22655 12.7424 8.85752C12.7424 8.4885 12.4541 8.2002 12.0851 8.2002ZM12.0851 9.14582C11.9236 9.14582 11.7852 9.00744 11.7852 8.84599C11.7852 8.68454 11.9236 8.54616 12.0851 8.54616C12.2465 8.54616 12.3849 8.68454 12.3849 8.84599C12.3849 9.01897 12.258 9.14582 12.0851 9.14582Z" fill="#F66B6B"/>
</svg>
