<svg width="17" height="21" viewBox="0 0 17 21" fill="none" xmlns="http://www.w3.org/2000/svg">
<path d="M12.25 13.9998H11.0833C11.0836 13.8853 11.049 13.7734 10.9842 13.679L10.2083 12.5123C10.017 12.2257 9.91542 11.8885 9.91667 11.5439V9.91051C9.92539 9.01024 10.224 8.13675 10.7683 7.4196C11.203 6.82451 11.4906 6.13493 11.6075 5.40732C11.7245 4.6797 11.6674 3.93474 11.4411 3.23341C11.2147 2.53208 10.8255 1.89433 10.3053 1.37236C9.78508 0.85039 9.14864 0.459047 8.44809 0.230367C7.74753 0.00168769 7.00279 -0.0578277 6.27481 0.0566935C5.54683 0.171215 4.85632 0.456516 4.25981 0.889243C3.6633 1.32197 3.17774 1.88982 2.8429 2.5463C2.50805 3.20278 2.33343 3.92923 2.33333 4.66619C2.32898 5.69212 2.66778 6.69005 3.29583 7.50127C3.81415 8.1947 4.09078 9.03896 4.08333 9.90467V11.5439C4.08458 11.8885 3.98303 12.2257 3.79167 12.5123L3.01583 13.679C2.95097 13.7734 2.91638 13.8853 2.91667 13.9998H1.75C1.2863 14.0012 0.841982 14.186 0.514093 14.5139C0.186204 14.8418 0.00138489 15.2861 0 15.7498V18.0832C0 18.238 0.0614577 18.3863 0.170854 18.4957C0.28025 18.6051 0.428624 18.6666 0.583333 18.6666H1.16667V20.4167C1.16667 20.5714 1.22812 20.7197 1.33752 20.8291C1.44692 20.9385 1.59529 21 1.75 21H12.25C12.4047 21 12.5531 20.9385 12.6625 20.8291C12.7719 20.7197 12.8333 20.5714 12.8333 20.4167V18.6666H13.4167C13.5714 18.6666 13.7197 18.6051 13.8291 18.4957C13.9385 18.3863 14 18.238 14 18.0832V15.7498C13.9986 15.2861 13.8138 14.8418 13.4859 14.5139C13.158 14.186 12.7137 14.0012 12.25 13.9998ZM3.5 4.66619C3.49978 4.1136 3.6304 3.56882 3.88116 3.07642C4.13193 2.58401 4.49571 2.15798 4.94274 1.83318C5.38978 1.50838 5.90736 1.29404 6.45314 1.2077C6.99892 1.12136 7.55739 1.16548 8.08284 1.33644C8.6083 1.5074 9.08581 1.80034 9.47631 2.1913C9.8668 2.58227 10.1592 3.06013 10.3295 3.5858C10.4999 4.11147 10.5433 4.67 10.4564 5.2157C10.3694 5.76139 10.1545 6.27874 9.82917 6.72541C9.1381 7.64439 8.75987 8.76072 8.75 9.91051V11.5439C8.74901 12.1193 8.91961 12.6819 9.24 13.1598L9.8 13.9998H4.2L4.76 13.1598C5.08039 12.6819 5.25099 12.1193 5.25 11.5439V9.90467C5.25677 8.7839 4.89616 7.69178 4.22333 6.79542C3.7531 6.18536 3.49868 5.43645 3.5 4.66619ZM11.6667 19.8333H2.33333V18.6666H11.6667V19.8333ZM12.8333 17.4999H1.16667V15.7498C1.16667 15.5951 1.22812 15.4468 1.33752 15.3374C1.44692 15.228 1.59529 15.1665 1.75 15.1665H12.25C12.4047 15.1665 12.5531 15.228 12.6625 15.3374C12.7719 15.4468 12.8333 15.5951 12.8333 15.7498V17.4999Z" fill="#F66B6B"/>
<path d="M11.1016 10.4425L8.52047 13.0236C8.05831 13.4857 7.30888 13.4857 6.84672 13.0236C6.38451 12.5614 6.38435 11.8119 6.84671 11.3497C6.84674 11.3497 6.84678 11.3496 6.84681 11.3496L9.42769 8.7686L6.84672 6.18763C6.38454 5.72545 6.38435 4.97607 6.84663 4.51383C6.84669 4.51377 6.84675 4.51372 6.84681 4.51366M11.1016 10.4425L6.84681 4.51366M11.1016 10.4425L13.6826 13.0234C13.6826 13.0234 13.6826 13.0234 13.6827 13.0235C14.1449 13.4859 14.8943 13.4855 15.3563 13.0235L11.1016 10.4425ZM6.84681 4.51366C7.30897 4.05146 8.05834 4.05148 8.52046 4.51374M6.84681 4.51366L8.52046 4.51374M8.52046 4.51374C8.5205 4.51377 8.52053 4.5138 8.52056 4.51383L11.1016 7.09472L13.6827 4.51361L14.0362 4.86716L13.6827 4.51361C14.1448 4.05145 14.8943 4.05145 15.3564 4.51361C15.8187 4.9759 15.8187 5.72534 15.3564 6.18763L12.7755 8.7686L15.3564 11.3496C15.8186 11.8118 15.8188 12.5612 15.3564 13.0234L8.52046 4.51374Z" fill="#F66B6B" stroke="#ECFFF9" stroke-width="0.999999"/>
</svg>
