<svg width="15" height="23" viewBox="0 0 15 23" fill="none" xmlns="http://www.w3.org/2000/svg">
<path d="M13.125 15.3331H11.875C11.8753 15.2077 11.8382 15.0851 11.7688 14.9817L10.9375 13.7039C10.7325 13.39 10.6237 13.0207 10.625 12.6433V10.8544C10.6344 9.86835 10.9543 8.91168 11.5375 8.12623C12.0032 7.47447 12.3114 6.71921 12.4367 5.9223C12.5619 5.12539 12.5008 4.30948 12.2583 3.54135C12.0158 2.77323 11.5988 2.07474 11.0414 1.50306C10.484 0.93138 9.80212 0.502766 9.05152 0.252307C8.30093 0.00184842 7.50298 -0.0633351 6.72301 0.0620928C5.94303 0.187521 5.2032 0.499994 4.56408 0.973932C3.92496 1.44787 3.40473 2.0698 3.04596 2.7888C2.6872 3.50781 2.5001 4.30345 2.5 5.11059C2.49534 6.23423 2.85833 7.3272 3.53125 8.21568C4.08659 8.97515 4.38298 9.89982 4.375 10.848V12.6433C4.37633 13.0207 4.26753 13.39 4.0625 13.7039L3.23125 14.9817C3.16176 15.0851 3.1247 15.2077 3.125 15.3331H1.875C1.37818 15.3346 0.902123 15.5371 0.550814 15.8962C0.199504 16.2553 0.00148381 16.742 0 17.2498V19.8055C0 19.9749 0.0658476 20.1374 0.183058 20.2572C0.300268 20.3771 0.45924 20.4444 0.625 20.4444H1.25V22.3611C1.25 22.5305 1.31585 22.6931 1.43306 22.8129C1.55027 22.9327 1.70924 23 1.875 23H13.125C13.2908 23 13.4497 22.9327 13.5669 22.8129C13.6842 22.6931 13.75 22.5305 13.75 22.3611V20.4444H14.375C14.5408 20.4444 14.6997 20.3771 14.8169 20.2572C14.9342 20.1374 15 19.9749 15 19.8055V17.2498C14.9985 16.742 14.8005 16.2553 14.4492 15.8962C14.0979 15.5371 13.6218 15.3346 13.125 15.3331ZM3.75 5.11059C3.74977 4.50538 3.88972 3.90871 4.15839 3.36941C4.42706 2.83011 4.81683 2.3635 5.2958 2.00777C5.77476 1.65203 6.32931 1.41728 6.91408 1.32272C7.49884 1.22816 8.0972 1.27648 8.66019 1.46372C9.22318 1.65096 9.7348 1.9718 10.1532 2.4C10.5716 2.8282 10.8848 3.35157 11.0674 3.9273C11.2499 4.50304 11.2964 5.11477 11.2033 5.71243C11.1101 6.3101 10.8798 6.87672 10.5312 7.36593C9.79082 8.37242 9.38557 9.59508 9.375 10.8544V12.6433C9.37394 13.2735 9.55672 13.8897 9.9 14.4131L10.5 15.3331H4.5L5.1 14.4131C5.44327 13.8897 5.62606 13.2735 5.625 12.6433V10.848C5.63226 9.62046 5.24588 8.42433 4.525 7.4426C4.02118 6.77444 3.74859 5.95421 3.75 5.11059ZM12.5 21.7222H2.5V20.4444H12.5V21.7222ZM13.75 19.1666H1.25V17.2498C1.25 17.0804 1.31585 16.9179 1.43306 16.7981C1.55027 16.6782 1.70924 16.6109 1.875 16.6109H13.125C13.2908 16.6109 13.4497 16.6782 13.5669 16.7981C13.6842 16.9179 13.75 17.0804 13.75 17.2498V19.1666Z" fill="#F66B6B"/>
</svg>
