<svg width="18" height="18" viewBox="0 0 18 18" fill="none" xmlns="http://www.w3.org/2000/svg">
<path d="M10.4226 11.7998C9.98243 11.4927 9.51208 11.2424 9.02016 11.0513C9.67454 10.4564 10.1086 9.62314 10.1842 8.69029C11.1765 7.72323 12.4773 7.19308 13.8717 7.19308C14.9603 7.19308 16.0056 7.52092 16.8946 8.14104C17.2132 8.36326 17.6513 8.28525 17.8735 7.96661C18.0956 7.6481 18.0176 7.20983 17.6991 6.98775C17.259 6.68064 16.7885 6.43053 16.2966 6.23921C17.0186 5.58283 17.4727 4.63638 17.4727 3.58596C17.4727 1.60859 15.8643 0 13.8871 0C11.9101 0 10.3017 1.60859 10.3017 3.58596C10.3017 4.63213 10.752 5.57514 11.4692 6.23124C11.371 6.26901 11.2733 6.30898 11.1766 6.35156C10.7366 6.54522 10.323 6.78338 9.93835 7.06301C9.40784 5.7449 8.11626 4.81205 6.61072 4.81205C4.63372 4.81205 3.02518 6.42064 3.02518 8.39788C3.02518 9.44116 3.47301 10.3816 4.1863 11.0374C2.27921 11.752 0.732879 13.2868 0.103361 15.2443C-0.10538 15.8934 0.00516999 16.5818 0.406721 17.1329C0.808273 17.684 1.42955 18 2.11125 18H8.22777C8.616 18 8.93076 17.6852 8.93076 17.2968C8.93076 16.9085 8.616 16.5937 8.22777 16.5937H2.11125C1.88397 16.5937 1.67688 16.4884 1.54299 16.3046C1.40909 16.1208 1.37228 15.8913 1.44177 15.6749C2.13666 13.5141 4.25593 12.0051 6.59534 12.0051C7.68381 12.0051 8.72916 12.333 9.61823 12.9531C9.9367 13.1753 10.3749 13.0972 10.5971 12.7787C10.8192 12.4602 10.7412 12.0219 10.4226 11.7998ZM13.8871 1.40628C15.0889 1.40628 16.0665 2.38405 16.0665 3.58596C16.0665 4.78774 15.0889 5.76564 13.8871 5.76564C12.6855 5.76564 11.7077 4.78774 11.7077 3.58596C11.7077 2.38405 12.6855 1.40628 13.8871 1.40628ZM6.61072 6.2182C7.81249 6.2182 8.79014 7.1961 8.79014 8.39788C8.79014 9.59979 7.81249 10.5776 6.61072 10.5776C5.40895 10.5776 4.4313 9.59979 4.4313 8.39788C4.4313 7.1961 5.40895 6.2182 6.61072 6.2182Z" fill="#F66B6B"/>
</svg>
